<?xml version="1.0" standalone="no"?>
<!DOCTYPE svg PUBLIC "-//W3C//DTD SVG 20010904//EN"
 "http://www.w3.org/TR/2001/REC-SVG-20010904/DTD/svg10.dtd">
<svg version="1.0" xmlns="http://www.w3.org/2000/svg"
 width="2000.000000pt" height="2000.000000pt" viewBox="0 0 2000.000000 2000.000000"
 preserveAspectRatio="xMidYMid meet">
<metadata>
Created by potrace 1.11, written by Peter Selinger 2001-2013
</metadata>
<g transform="translate(0.000000,2000.000000) scale(0.100000,-0.100000)"
fill="#000000" stroke="none">
<path d="M4335 17700 c-2 -4 -24 -10 -47 -14 -23 -4 -47 -11 -54 -17 -7 -5
-16 -9 -20 -7 -5 1 -19 -3 -30 -10 -12 -6 -44 -19 -70 -28 -47 -15 -249 -111
-327 -155 -21 -12 -62 -43 -90 -69 l-51 -47 0 -65 c-1 -61 4 -75 63 -194 35
-71 74 -145 86 -164 12 -19 52 -93 90 -165 37 -71 72 -135 76 -141 5 -6 24
-39 42 -75 43 -82 171 -313 314 -569 39 -69 82 -147 97 -175 15 -27 37 -66 48
-85 22 -36 173 -305 212 -375 12 -23 45 -81 73 -130 169 -298 253 -447 253
-450 0 -2 21 -39 47 -82 25 -43 62 -107 81 -143 19 -36 47 -85 62 -110 58 -95
130 -228 130 -239 0 -6 4 -11 8 -11 5 0 18 -19 28 -42 10 -23 30 -58 43 -78
13 -19 47 -78 76 -130 29 -52 63 -113 75 -135 13 -22 35 -60 49 -85 14 -25 46
-81 71 -124 25 -43 57 -100 72 -128 l26 -49 -73 -105 c-158 -225 -347 -562
-468 -834 -68 -153 -188 -479 -227 -617 l-24 -83 -1022 0 c-1118 0 -1034 4
-1034 -55 0 -13 154 -302 341 -642 188 -340 348 -632 357 -649 l15 -32 -357
-645 c-362 -657 -378 -691 -344 -725 9 -9 249 -12 1019 -12 951 0 1008 -1
1013 -17 55 -191 79 -267 133 -418 176 -486 427 -945 754 -1375 272 -358 637
-721 1001 -995 401 -303 879 -567 1293 -715 136 -49 154 -60 132 -81 -7 -8
-20 -26 -28 -41 -26 -50 -82 -143 -88 -148 -4 -3 -12 -16 -19 -30 -7 -14 -23
-43 -37 -65 -14 -22 -34 -56 -45 -75 -11 -19 -29 -48 -40 -65 -21 -33 -29 -47
-79 -132 -18 -32 -37 -60 -40 -63 -4 -3 -12 -16 -19 -30 -20 -40 -71 -121 -87
-137 -8 -8 -15 -19 -15 -24 0 -11 -41 -72 -52 -77 -5 -2 -8 -11 -8 -20 0 -10
-9 -23 -20 -30 -11 -7 -20 -19 -20 -27 0 -12 -30 -64 -57 -100 -5 -5 -30 -44
-57 -85 -120 -182 -153 -202 -381 -231 -225 -28 -1342 -50 -1520 -29 -38 5
-243 11 -455 14 -679 11 -934 18 -1015 30 -70 11 -591 7 -620 -4 -34 -13 -83
-56 -96 -85 -5 -11 -23 -40 -39 -65 -34 -52 -56 -96 -100 -200 -18 -41 -36
-79 -41 -85 -5 -5 -9 -16 -9 -25 0 -16 -17 -59 -41 -102 -5 -10 -9 -22 -9 -27
0 -5 -5 -22 -12 -38 -7 -15 -13 -32 -13 -38 -2 -9 -14 -42 -32 -85 -3 -8 -7
-19 -7 -25 -2 -15 -46 -156 -56 -180 -8 -17 -34 -107 -46 -155 -13 -56 -28
-108 -37 -130 -27 -72 -49 -366 -29 -396 9 -15 82 -45 92 -39 5 3 19 1 32 -5
48 -21 220 -33 723 -50 333 -11 1905 -11 2310 0 171 5 384 11 475 13 91 3 201
8 245 11 44 4 145 11 225 16 317 20 405 30 520 57 95 22 110 33 181 130 68 93
149 213 149 221 0 2 20 33 45 69 25 35 45 68 45 73 0 4 4 10 8 12 4 1 21 26
37 53 15 28 31 52 35 55 7 5 99 157 115 190 5 11 13 20 17 20 5 0 8 5 8 11 0
6 10 25 23 42 12 16 36 54 52 83 32 57 89 150 118 193 9 14 26 44 37 66 12 22
54 92 95 155 41 63 82 129 90 145 8 17 25 47 38 67 12 21 46 79 76 130 30 51
57 95 61 98 3 3 21 32 39 65 19 33 36 62 40 65 3 3 16 25 29 50 23 45 37 69
102 175 19 31 40 64 45 73 6 10 32 54 58 99 26 44 54 87 62 93 8 7 15 21 15
31 0 10 4 20 9 23 5 3 19 25 31 48 12 24 35 62 51 86 16 24 29 46 29 49 0 3
14 27 31 54 l32 48 61 -7 c79 -9 961 -9 1003 0 31 7 33 6 72 -63 23 -39 41
-75 41 -80 0 -5 5 -9 10 -9 6 0 10 -5 10 -12 0 -6 6 -19 14 -27 7 -9 31 -47
51 -86 21 -38 45 -79 54 -90 9 -11 28 -40 41 -65 13 -25 43 -76 67 -115 23
-38 63 -108 89 -155 26 -47 51 -87 55 -90 4 -3 18 -25 31 -50 13 -25 37 -64
52 -88 15 -24 35 -58 45 -75 10 -18 48 -81 85 -141 36 -60 66 -111 66 -114 0
-3 6 -13 14 -21 7 -9 27 -41 43 -71 16 -30 47 -82 69 -115 22 -33 53 -82 69
-110 17 -27 34 -58 40 -67 14 -24 138 -224 202 -328 29 -47 60 -100 69 -119 8
-18 24 -42 34 -53 10 -12 26 -35 35 -52 16 -32 22 -41 88 -140 20 -31 37 -60
37 -65 0 -5 3 -11 8 -13 6 -3 71 -93 122 -171 110 -168 121 -176 265 -209 22
-5 49 -9 60 -9 11 1 40 -3 65 -9 25 -5 77 -12 115 -16 39 -4 88 -8 110 -11 22
-2 83 -5 135 -8 52 -2 136 -6 185 -10 337 -24 927 -33 2040 -29 1182 3 1292 5
1525 25 69 6 136 11 150 11 33 0 127 17 163 30 15 6 37 22 47 36 68 86 -40
556 -259 1127 -27 72 -51 137 -53 145 -2 8 -6 17 -9 20 -4 3 -29 51 -57 107
-82 164 -132 229 -196 253 -29 11 -579 8 -656 -3 -19 -3 -177 -8 -350 -12
-173 -4 -470 -11 -660 -17 -458 -14 -1432 -19 -1545 -8 -49 5 -171 14 -270 19
-237 14 -337 33 -379 74 -37 37 -109 140 -231 332 -32 50 -73 114 -91 142 -19
29 -34 55 -34 59 0 3 -13 24 -29 47 -29 43 -83 130 -111 177 -8 15 -34 58 -57
98 -24 39 -43 75 -43 80 0 6 -4 12 -9 14 -13 5 -245 387 -239 393 2 2 62 25
133 50 428 155 901 416 1303 720 364 274 729 637 1001 995 239 315 460 683
615 1028 92 204 210 532 265 740 l12 42 1017 0 c779 0 1021 3 1030 12 34 34
18 68 -344 725 l-357 645 15 32 c9 17 169 309 357 649 187 340 341 629 341
642 0 59 85 55 -1044 55 l-1032 0 -24 83 c-39 138 -159 464 -227 617 -122 273
-311 610 -470 837 -41 60 -77 113 -80 119 -2 5 7 26 20 45 12 19 29 49 36 67
7 17 17 32 21 32 4 0 15 20 26 45 10 25 22 45 26 45 5 0 18 19 28 43 11 23 36
69 54 102 19 33 40 71 48 85 7 14 39 69 70 123 32 53 58 101 58 106 0 5 7 16
15 24 8 8 26 39 40 68 25 53 66 124 82 144 4 6 16 26 26 45 9 19 30 56 45 82
49 86 136 240 172 304 99 179 139 250 147 259 4 6 17 28 28 50 11 22 22 42 25
45 8 6 57 93 83 145 11 22 22 42 26 45 3 3 18 30 34 60 26 53 62 118 104 190
11 19 40 70 64 114 24 43 59 104 76 135 18 31 42 75 53 98 11 23 24 44 29 47
4 3 23 36 42 73 18 37 36 70 39 73 3 3 14 24 24 48 11 23 22 42 27 42 4 0 12
13 17 29 5 15 23 48 38 72 15 24 41 69 56 99 66 128 84 161 95 177 7 10 25 42
40 71 101 191 127 239 138 252 6 8 28 49 49 90 20 41 48 93 62 115 43 70 57
108 62 172 l4 63 -61 60 c-34 33 -67 60 -73 60 -6 0 -32 13 -57 28 -25 16 -76
41 -113 57 -38 16 -68 33 -68 37 0 5 -6 8 -14 8 -8 0 -27 5 -43 11 -15 6 -29
10 -30 10 -2 0 -23 10 -49 24 -25 13 -72 30 -105 36 -33 6 -62 16 -65 20 -8
13 -214 11 -214 -1 0 -6 -19 -37 -42 -68 -23 -31 -51 -73 -63 -93 -36 -65
-109 -184 -116 -189 -3 -3 -20 -32 -38 -65 -18 -33 -36 -62 -40 -65 -3 -3 -12
-16 -19 -30 -7 -14 -23 -43 -37 -65 -14 -22 -29 -49 -34 -61 -5 -11 -15 -27
-23 -35 -7 -8 -21 -30 -31 -49 -28 -57 -58 -105 -68 -108 -5 -2 -9 -12 -9 -22
0 -10 -4 -21 -9 -24 -5 -4 -27 -37 -48 -74 -21 -37 -42 -75 -48 -84 -5 -9 -17
-29 -26 -45 -78 -138 -103 -180 -116 -195 -15 -17 -19 -23 -87 -154 -21 -41
-43 -74 -47 -74 -5 0 -9 -6 -9 -12 0 -7 -10 -28 -23 -47 -39 -59 -66 -105 -81
-138 -8 -18 -20 -38 -26 -45 -12 -15 -185 -312 -199 -344 -5 -11 -15 -27 -23
-35 -7 -8 -21 -30 -31 -49 -40 -78 -52 -99 -111 -198 -33 -56 -69 -119 -79
-139 -10 -20 -25 -42 -33 -50 -8 -8 -17 -25 -20 -39 -3 -13 -10 -24 -14 -24
-4 0 -14 -15 -21 -32 -7 -18 -29 -59 -49 -91 -43 -71 -84 -142 -107 -184 -9
-18 -20 -33 -25 -33 -4 0 -8 -7 -8 -15 0 -15 -27 -64 -41 -75 -4 -3 -24 -36
-44 -75 -21 -38 -43 -77 -49 -85 -7 -8 -21 -33 -31 -54 -32 -63 -59 -111 -77
-135 l-16 -23 -98 82 c-269 228 -607 452 -957 635 -548 286 -1217 484 -1859
550 -204 21 -832 21 -1036 0 -642 -66 -1311 -264 -1859 -550 -346 -181 -690
-409 -955 -633 -54 -45 -99 -82 -102 -82 -5 0 -71 108 -106 175 -28 52 -72
128 -112 194 -21 34 -38 65 -38 68 0 2 -15 27 -33 56 -29 46 -67 111 -143 246
-52 92 -76 134 -144 251 -40 69 -86 148 -103 175 -16 28 -43 75 -59 105 -17
30 -45 80 -63 110 -60 102 -74 125 -116 200 -24 41 -71 122 -106 179 -35 57
-63 105 -63 107 0 3 -20 38 -45 78 -25 41 -45 78 -45 82 0 4 -19 37 -43 73
-24 36 -57 91 -74 121 -16 30 -54 96 -84 145 -30 50 -57 97 -60 105 -4 8 -34
59 -68 113 -33 54 -61 100 -61 103 0 3 -13 25 -30 49 -16 24 -30 47 -30 50 0
4 -13 27 -30 52 -16 24 -30 46 -30 49 0 8 -241 396 -293 472 l-50 73 -94 -2
c-51 -1 -95 -5 -98 -9z m11328 -165 c155 -52 188 -64 240 -90 26 -13 47 -22
47 -20 0 5 161 -88 195 -112 13 -10 25 -22 25 -27 0 -16 -60 -136 -68 -136
-12 0 -635 260 -645 269 -8 8 83 151 96 151 5 0 54 -16 110 -35z m-11190 -62
c25 -38 44 -69 43 -69 -4 -5 -630 -264 -632 -262 -1 2 -16 30 -34 63 l-32 60
33 28 c19 16 50 36 69 46 186 95 257 127 375 166 72 24 102 32 122 34 6 0 31
-29 56 -66z m10390 -1392 c84 -43 234 -120 333 -171 l181 -94 -47 -80 c-26
-45 -66 -117 -90 -161 -23 -44 -57 -102 -74 -130 -18 -27 -54 -90 -81 -140
-26 -49 -74 -135 -105 -190 -32 -55 -69 -120 -82 -145 -66 -118 -281 -496
-287 -505 -5 -5 -25 -41 -45 -78 -53 -98 -74 -135 -110 -197 -18 -30 -68 -118
-112 -195 -43 -77 -83 -148 -89 -157 -5 -9 -23 -41 -39 -70 -15 -29 -33 -60
-40 -68 -6 -8 -25 -41 -41 -72 -17 -32 -33 -58 -36 -58 -3 0 -45 48 -94 107
-102 122 -278 313 -388 422 l-75 73 105 182 c58 99 116 199 129 221 20 35 91
158 236 410 22 39 54 93 70 120 32 51 83 140 145 255 20 36 41 72 48 80 13 17
78 129 125 215 31 58 63 111 102 167 10 15 18 31 18 36 0 5 12 27 27 48 25 37
44 70 115 197 18 31 36 57 41 57 4 0 77 -35 160 -79z m-9526 -56 c35 -60 66
-117 70 -125 3 -8 12 -22 18 -30 7 -8 24 -35 37 -60 14 -25 47 -82 74 -128 86
-146 103 -175 151 -262 26 -47 50 -86 55 -88 4 -2 8 -8 8 -12 0 -5 20 -42 43
-82 24 -40 82 -138 128 -218 46 -80 92 -158 102 -175 9 -16 23 -41 29 -55 7
-14 15 -27 18 -30 5 -5 11 -15 56 -96 13 -24 54 -94 90 -156 37 -62 80 -138
97 -168 17 -30 48 -84 69 -119 l38 -63 -137 -142 c-128 -131 -264 -283 -357
-398 -21 -26 -41 -46 -45 -43 -4 2 -16 22 -27 44 -10 23 -22 41 -26 41 -5 0
-8 4 -8 10 0 5 -33 67 -74 137 -75 131 -106 186 -159 283 -17 30 -57 99 -89
153 -32 55 -58 100 -58 102 0 2 -22 43 -50 91 -27 48 -50 91 -50 95 0 5 -4 9
-8 9 -4 0 -13 12 -19 28 -7 15 -20 41 -30 57 -10 17 -41 71 -68 120 -27 50
-63 113 -80 140 -17 28 -35 59 -39 69 -3 11 -28 56 -55 100 -51 85 -99 171
-138 246 -13 25 -46 83 -73 129 -28 46 -50 88 -50 92 0 5 -4 9 -10 9 -5 0 -10
5 -10 11 0 7 -31 67 -70 134 -38 67 -70 127 -70 132 0 5 96 58 213 118 116 60
257 133 312 162 55 29 106 51 114 50 8 -1 42 -51 78 -112z m5133 -610 c453
-42 995 -172 1415 -339 161 -64 430 -196 595 -291 74 -43 160 -92 190 -109
208 -120 539 -375 799 -616 118 -108 351 -358 457 -490 93 -115 257 -339 328
-447 180 -276 391 -695 493 -978 41 -112 113 -335 113 -348 0 -4 -15 -7 -32
-7 l-33 0 -38 123 c-133 421 -375 909 -644 1298 -761 1103 -1954 1865 -3268
2088 -311 53 -526 71 -855 71 -329 0 -544 -18 -855 -71 -1430 -243 -2691
-1109 -3450 -2369 -172 -285 -366 -713 -462 -1017 l-38 -123 -32 0 c-18 0 -33
3 -33 8 0 23 135 414 175 507 116 270 291 604 431 818 272 417 630 819 1014
1138 202 168 428 332 570 415 30 17 116 66 190 109 165 95 434 227 595 291
159 63 480 164 679 214 280 71 651 125 986 144 132 8 540 -4 710 -19z m-56
-516 c3 -34 6 -115 6 -180 l0 -119 -150 0 -150 0 0 25 0 25 -135 0 -135 0 0
-125 0 -125 40 0 c38 0 40 2 40 30 l0 30 150 0 150 0 0 -92 c0 -51 3 -144 7
-205 l6 -113 -151 0 -152 0 0 25 c0 23 -4 25 -40 25 l-40 0 0 -125 0 -125 135
0 135 0 0 29 0 29 148 4 c81 2 148 4 148 3 1 0 4 -79 7 -176 l6 -177 -182 -6
c-100 -3 -332 -8 -514 -11 l-333 -5 0 150 0 150 40 0 40 0 0 168 c0 92 -3 272
-7 400 l-6 232 -44 0 -43 0 0 150 c0 148 0 150 23 151 26 2 652 14 853 17
l141 2 7 -61z m693 -50 c-8 -5 -25 -34 -37 -64 -12 -31 -24 -54 -26 -52 -2 2
8 33 23 69 19 45 32 64 41 60 12 -4 12 -6 -1 -13z m63 -14 c14 -8 21 -14 15
-14 -5 0 -21 6 -35 14 -14 8 -20 14 -15 14 6 0 21 -6 35 -14z m70 -30 c14 -8
21 -14 15 -14 -5 0 -21 6 -35 14 -14 8 -20 14 -15 14 6 0 21 -6 35 -14z
m-2560 -25 c0 -5 -6 -10 -14 -10 -8 0 -23 -3 -33 -6 -10 -3 -7 2 7 10 30 18
40 20 40 6z m2693 -30 c42 -18 76 -35 74 -37 -5 -4 -169 65 -177 74 -6 8 8 3
103 -37z m-2803 -15 c-25 -13 -49 -24 -55 -24 -5 0 10 11 35 24 25 13 50 24
55 24 6 0 -10 -11 -35 -24z m2711 -32 c102 -43 139 -63 143 -78 2 -11 35 -239
72 -507 40 -285 73 -488 79 -488 10 0 274 613 282 655 3 16 -4 25 -31 38 -39
18 -39 13 -1 100 12 29 20 37 33 32 9 -3 88 -36 175 -72 174 -73 164 -61 126
-149 -18 -40 -21 -43 -45 -34 -58 22 -50 35 -242 -418 -100 -235 -182 -433
-182 -439 0 -6 14 -16 30 -23 17 -7 33 -16 35 -20 5 -9 -42 -120 -50 -120 -3
0 -70 27 -149 61 l-142 60 -69 495 c-42 299 -73 494 -80 494 -12 0 -275 -615
-275 -643 0 -9 12 -23 28 -29 15 -7 29 -13 31 -15 6 -4 -42 -123 -50 -123 -5
0 -342 140 -345 144 -1 0 11 29 27 64 l28 62 35 -17 c20 -9 38 -15 40 -12 10
11 366 860 366 874 0 9 -13 21 -30 26 -16 6 -30 15 -30 20 0 13 44 119 50 119
2 0 66 -26 141 -57z m-2561 -18 c0 -5 -5 -3 -10 5 -5 8 -10 20 -10 25 0 6 5 3
10 -5 5 -8 10 -19 10 -25z m2306 -2 c-8 -15 -15 -25 -16 -21 0 12 23 58 27 54
3 -2 -2 -17 -11 -33z m-2556 7 c-19 -11 -39 -19 -45 -19 -5 0 6 8 25 19 19 11
40 19 45 19 6 0 -6 -8 -25 -19z m3020 10 c8 -5 11 -10 5 -10 -5 0 -17 5 -25
10 -8 5 -10 10 -5 10 6 0 17 -5 25 -10z m-2802 -135 c-2 -1 -18 -10 -36 -19
-23 -12 -32 -23 -29 -34 2 -9 89 -205 193 -435 183 -406 189 -418 214 -414 14
3 33 7 43 9 13 2 24 -12 44 -55 14 -31 24 -59 22 -60 -13 -10 -326 -147 -335
-147 -6 0 -23 26 -37 58 l-27 57 35 15 c19 8 35 21 35 28 0 18 -161 372 -169
372 -4 0 -94 -40 -201 -88 -126 -57 -196 -94 -198 -105 -5 -24 151 -367 166
-367 7 0 26 7 41 15 l29 14 27 -60 c15 -33 24 -63 21 -66 -5 -6 -269 -126
-314 -144 -21 -8 -25 -4 -47 44 -32 66 -31 72 5 87 17 7 30 18 30 24 0 6 -86
204 -192 439 -173 386 -194 428 -213 423 -64 -19 -60 -20 -88 41 -14 31 -25
58 -24 59 7 7 341 154 343 151 7 -6 55 -120 52 -122 -2 -1 -18 -7 -35 -14 -18
-8 -33 -17 -33 -22 0 -5 32 -81 72 -169 48 -109 76 -160 87 -160 25 0 401 172
401 183 0 6 -32 82 -72 170 -77 171 -73 168 -139 142 -11 -4 -21 7 -37 42 -12
26 -23 54 -24 62 -2 9 56 40 167 90 l169 77 28 -59 c16 -33 27 -61 26 -62z
m2880 -350 c0 -16 -15 69 -33 190 -19 121 -33 234 -33 250 0 17 15 -69 33
-190 19 -121 33 -233 33 -250z m-3198 430 c-25 -13 -49 -24 -55 -24 -5 0 10
11 35 24 25 13 50 24 55 24 6 0 -10 -11 -35 -24z m2634 -23 c-5 -24 -2 -29 30
-40 27 -10 33 -17 28 -30 -6 -16 -7 -16 -10 0 -2 9 -19 22 -38 28 -39 13 -38
11 -22 45 15 33 19 32 12 -3z m-2734 -22 c-19 -11 -39 -19 -45 -19 -5 0 6 8
25 19 19 11 40 19 45 19 6 0 -6 -8 -25 -19z m500 -25 c0 -5 -5 -3 -10 5 -5 8
-10 20 -10 25 0 6 5 3 10 -5 5 -8 10 -19 10 -25z m-560 -16 c0 -29 90 -230
106 -236 7 -2 25 2 41 11 l30 15 22 -46 c12 -25 20 -47 18 -49 -2 -2 -12 14
-22 36 -20 45 -20 45 -66 26 l-34 -14 -58 126 c-58 129 -65 152 -47 152 6 0
10 -10 10 -21z m3640 -16 c3 -3 -6 -2 -20 2 -24 6 -28 1 -59 -75 -19 -44 -35
-79 -37 -77 -3 2 12 43 32 90 34 81 38 86 58 75 11 -6 23 -13 26 -15z m-3074
-29 c-11 -8 -25 -14 -30 -13 -6 0 -1 5 12 11 12 6 22 16 22 21 0 6 3 7 7 3 5
-4 -1 -14 -11 -22z m3124 11 c14 -8 21 -14 15 -14 -5 0 -21 6 -35 14 -14 8
-20 14 -15 14 6 0 21 -6 35 -14z m-859 -22 c-12 -20 -14 -14 -5 12 4 9 9 14
11 11 3 -2 0 -13 -6 -23z m-2957 -29 c9 -20 15 -38 13 -41 -2 -2 -10 10 -17
28 -12 28 -16 31 -49 26 -35 -6 -36 -6 -11 8 37 21 45 19 64 -21z m3949 -4
c42 -18 76 -35 74 -37 -5 -4 -169 65 -177 74 -6 8 8 3 103 -37z m-3303 10 c0
-11 71 -177 158 -370 l157 -351 30 5 30 5 -30 -14 c-16 -7 -31 -12 -32 -11 -6
6 -333 738 -333 746 0 6 5 10 10 10 6 0 10 -9 10 -20z m-770 -20 c-19 -11 -39
-19 -45 -19 -5 0 6 8 25 19 19 11 40 19 45 19 6 0 -6 -8 -25 -19z m-100 -45
c-25 -13 -49 -24 -55 -24 -5 0 10 11 35 24 25 13 50 24 55 24 6 0 -10 -11 -35
-24z m4300 0 c14 -8 21 -14 15 -14 -5 0 -21 6 -35 14 -14 8 -20 14 -15 14 6 0
21 -6 35 -14z m-4021 -70 c0 -5 -8 6 -19 25 -11 19 -19 40 -19 45 0 6 8 -6 19
-25 11 -19 19 -39 19 -45z m4105 35 c25 -10 46 -25 46 -32 0 -9 -3 -10 -8 -2
-4 6 -27 21 -52 32 -58 26 -46 28 14 2z m-4484 -10 c-19 -11 -39 -19 -45 -19
-5 0 6 8 25 19 19 11 40 19 45 19 6 0 -6 -8 -25 -19z m3961 -18 c-15 -28 -14
-59 2 -65 6 -3 8 -6 2 -6 -5 0 -16 3 -23 8 -11 6 -10 16 4 50 9 23 19 40 21
37 3 -2 0 -13 -6 -24z m-4061 -27 c-25 -13 -49 -24 -55 -24 -5 0 10 11 35 24
25 13 50 24 55 24 6 0 -10 -11 -35 -24z m3301 -12 c-12 -20 -14 -14 -5 12 4 9
9 14 11 11 3 -2 0 -13 -6 -23z m-2781 -59 c0 -11 -49 -38 -57 -30 -2 2 5 7 17
11 22 7 24 29 6 80 -4 11 2 4 13 -15 11 -19 20 -40 21 -46z m4064 -18 c-21
-47 -39 -85 -41 -83 -2 2 13 43 33 91 21 47 39 85 41 83 2 -2 -13 -43 -33 -91z
m-477 36 c8 -5 8 -14 -3 -32 -15 -25 -15 -25 -8 -1 4 15 1 27 -7 32 -8 5 -9 9
-4 9 6 0 15 -4 22 -8z m-4128 -97 c0 -5 -11 10 -24 35 -13 25 -24 50 -24 55 0
6 11 -10 24 -35 13 -25 24 -49 24 -55z m3292 68 c-12 -20 -14 -14 -5 12 4 9 9
14 11 11 3 -2 0 -13 -6 -23z m-2451 -100 c0 -13 -78 -58 -86 -50 -2 2 14 12
36 22 44 20 47 27 25 65 -8 14 -14 30 -14 35 0 14 38 -57 39 -72z m3249 8
c-12 -28 -24 -50 -26 -48 -2 2 6 27 18 56 12 28 24 50 26 48 2 -2 -6 -27 -18
-56z m-828 22 c-12 -20 -14 -14 -5 12 4 9 9 14 11 11 3 -2 0 -13 -6 -23z
m-2752 -58 c0 -5 -8 6 -19 25 -11 19 -19 40 -19 45 0 6 8 -6 19 -25 11 -19 19
-39 19 -45z m3428 18 c-3 -10 -5 -2 -5 17 0 19 2 27 5 18 2 -10 2 -26 0 -35z
m-3898 -48 c0 -5 -8 6 -19 25 -11 19 -19 40 -19 45 0 6 8 -6 19 -25 11 -19 19
-39 19 -45z m4511 26 c-12 -23 -18 -25 -40 -11 -12 8 -11 10 8 10 12 0 25 7
29 15 3 9 8 14 10 11 3 -2 0 -14 -7 -25z m-70 9 c12 -8 11 -10 -7 -10 -13 0
-23 5 -23 10 0 13 11 13 30 0z m-533 -57 c-3 -10 -5 -2 -5 17 0 19 2 27 5 18
2 -10 2 -26 0 -35z m-3372 -40 c11 2 29 8 40 11 11 4 3 -2 -18 -14 -22 -12
-40 -20 -42 -18 -8 9 -45 88 -44 95 0 4 10 -11 22 -35 17 -34 26 -42 42 -39z
m3861 40 c-8 -15 -15 -25 -16 -21 0 12 23 58 27 54 3 -2 -2 -17 -11 -33z
m-3736 2 c-25 -13 -49 -24 -55 -24 -5 0 10 11 35 24 25 13 50 24 55 24 6 0
-10 -11 -35 -24z m3346 -12 c-8 -15 -15 -25 -16 -21 0 12 23 58 27 54 3 -2 -2
-17 -11 -33z m-3965 -1 c13 3 31 9 40 12 10 5 19 1 22 -8 4 -10 1 -13 -8 -9
-8 3 -29 0 -47 -6 -32 -11 -48 -3 -48 24 0 6 4 4 9 -4 5 -8 18 -12 32 -9z
m3559 -349 c23 -167 40 -308 38 -314 -2 -5 -21 113 -42 263 -21 150 -40 283
-43 296 -9 38 -30 25 -53 -33 -13 -31 -24 -54 -26 -52 -3 2 12 43 33 92 28 67
39 83 44 69 4 -11 26 -155 49 -321z m317 290 c-3 -10 -5 -2 -5 17 0 19 2 27 5
18 2 -10 2 -26 0 -35z m442 -22 c-12 -28 -24 -50 -26 -48 -2 2 6 27 18 56 12
28 24 50 26 48 2 -2 -6 -27 -18 -56z m-383 12 c-8 -15 -15 -25 -16 -21 0 12
23 58 27 54 3 -2 -2 -17 -11 -33z m-835 0 c-12 -20 -14 -14 -5 12 4 9 9 14 11
11 3 -2 0 -13 -6 -23z m-2991 -28 c0 -5 -5 -3 -10 5 -5 8 -10 20 -10 25 0 6 5
3 10 -5 5 -8 10 -19 10 -25z m3797 -5 c10 0 13 -5 8 -17 -4 -10 -10 -26 -13
-36 -8 -28 -22 0 -21 43 0 19 3 29 6 23 2 -7 12 -13 20 -13z m-836 -37 c-12
-20 -14 -14 -5 12 4 9 9 14 11 11 3 -2 0 -13 -6 -23z m1205 -40 c-8 -15 -15
-25 -16 -21 0 12 23 58 27 54 3 -2 -2 -17 -11 -33z m924 22 c11 -13 10 -14 -4
-9 -9 3 -24 0 -34 -7 -14 -11 -13 -9 2 9 23 26 20 26 36 7z m-5041 -50 c0 -5
-6 1 -14 15 -8 14 -14 30 -14 35 0 6 6 -1 14 -15 8 -14 14 -29 14 -35z m2880
-9 c-13 -29 -17 -30 -39 -16 -12 8 -11 10 7 10 13 0 24 8 28 21 4 11 9 18 11
16 3 -2 -1 -16 -7 -31z m2101 31 c0 -2 -17 -19 -37 -38 l-38 -34 34 38 c33 34
41 42 41 34z m120 -42 c19 -19 32 -35 29 -35 -3 0 -20 16 -39 35 -19 19 -32
35 -29 35 3 0 20 -16 39 -35z m-4365 15 c3 -6 -4 -10 -17 -10 -18 0 -20 2 -8
10 19 12 18 12 25 0z m2075 0 c12 -8 11 -10 -7 -10 -13 0 -23 -5 -23 -12 0 -6
-2 -9 -5 -6 -7 6 5 38 14 38 3 0 13 -5 21 -10z m446 -27 c-8 -15 -15 -25 -16
-21 0 12 23 58 27 54 3 -2 -2 -17 -11 -33z m830 -10 c-8 -15 -15 -25 -16 -21
0 12 23 58 27 54 3 -2 -2 -17 -11 -33z m-3426 7 c-19 -11 -39 -19 -45 -19 -5
0 6 8 25 19 19 11 40 19 45 19 6 0 -6 -8 -25 -19z m119 -65 c0 -5 -8 6 -19 25
-11 19 -19 40 -19 45 0 6 8 -6 19 -25 11 -19 19 -39 19 -45z m1977 18 c-8 -15
-15 -25 -16 -21 0 12 23 58 27 54 3 -2 -2 -17 -11 -33z m-2716 -8 c0 -5 -5 -3
-10 5 -5 8 -10 20 -10 25 0 6 5 3 10 -5 5 -8 10 -19 10 -25z m4850 32 c0 -2
-17 -19 -37 -38 l-38 -34 34 38 c33 34 41 42 41 34z m469 -377 l331 -375 -37
-33 c-21 -18 -59 -51 -84 -72 l-47 -40 -42 50 -43 51 22 23 c11 12 21 30 21
40 0 25 -139 176 -162 176 -21 0 -701 -594 -706 -617 -2 -7 6 -25 18 -40 l21
-26 -48 -43 c-26 -24 -50 -43 -53 -43 -5 0 -187 207 -225 255 l-20 26 49 45
49 44 22 -27 c12 -15 28 -25 38 -23 26 6 707 609 707 626 0 14 -144 184 -162
191 -4 2 -20 -6 -34 -17 -15 -12 -30 -21 -35 -21 -4 0 -25 21 -46 46 l-37 46
74 69 c41 38 80 68 87 66 6 -1 161 -171 342 -377z m-4809 350 c-19 -11 -39
-19 -45 -19 -5 0 6 8 25 19 19 11 40 19 45 19 6 0 -6 -8 -25 -19z m2676 -17
c-8 -15 -15 -25 -16 -21 0 12 23 58 27 54 3 -2 -2 -17 -11 -33z m1944 2 c19
-19 32 -35 29 -35 -3 0 -20 16 -39 35 -19 19 -32 35 -29 35 3 0 20 -16 39 -35z
m-1114 -12 c-8 -15 -15 -25 -16 -21 0 12 23 58 27 54 3 -2 -2 -17 -11 -33z
m-3578 -4 c-10 -5 -18 -18 -18 -27 0 -15 -2 -15 -10 -2 -10 15 12 40 34 40 6
0 3 -5 -6 -11z m351 -94 c0 -5 -11 10 -24 35 -13 25 -24 50 -24 55 0 6 11 -10
24 -35 13 -25 24 -49 24 -55z m1897 58 c-8 -15 -15 -25 -16 -21 0 12 23 58 27
54 3 -2 -2 -17 -11 -33z m2057 -6 c-15 -19 -30 -32 -32 -30 -5 3 49 63 57 63
2 0 -9 -15 -25 -33z m-5376 -76 c62 -54 110 -101 108 -103 -3 -2 -30 20 -61
49 -31 29 -80 73 -109 98 l-53 46 -152 -11 c-87 -6 -160 -15 -169 -22 -12 -9
-12 -8 1 7 14 15 38 20 120 25 221 14 189 24 315 -89z m3805 75 c4 -17 1 -23
-9 -19 -15 6 -15 6 -7 27 8 22 11 20 16 -8z m-1912 -21 c0 -5 -5 -3 -10 5 -5
8 -10 20 -10 25 0 6 5 3 10 -5 5 -8 10 -19 10 -25z m2719 -24 c-12 -28 -24
-50 -26 -48 -2 2 6 27 18 56 12 28 24 50 26 48 2 -2 -6 -27 -18 -56z m1226 19
c21 -22 37 -40 34 -40 -3 0 -23 18 -44 40 -21 22 -37 40 -34 40 3 0 23 -18 44
-40z m-5155 -15 c0 -5 -5 -3 -10 5 -5 8 -10 20 -10 25 0 6 5 3 10 -5 5 -8 10
-19 10 -25z m409 -40 c0 -5 -8 6 -19 25 -11 19 -19 40 -19 45 0 6 8 -6 19 -25
11 -19 19 -39 19 -45z m2201 25 c-7 -12 -10 -30 -7 -40 3 -13 0 -17 -9 -13
-11 4 -11 11 1 40 8 20 15 38 15 41 0 3 3 3 6 0 3 -4 0 -16 -6 -28z m554 24
c20 -8 20 -31 1 -64 -18 -31 -19 -21 -3 16 11 23 10 28 -7 40 -20 15 -17 18 9
8z m-4294 -7 c0 -2 -19 -21 -42 -42 l-43 -40 40 43 c36 39 45 47 45 39z m5830
-32 c13 -14 21 -25 18 -25 -2 0 -15 11 -28 25 -13 14 -21 25 -18 25 2 0 15
-11 28 -25z m-5453 -47 l71 -62 -25 -30 c-14 -17 -46 -53 -70 -80 l-44 -49
-44 43 -43 42 -73 -4 -72 -4 -50 -54 c-27 -30 -69 -79 -94 -107 l-45 -53 7
-69 7 -70 281 -251 282 -250 72 0 71 0 96 106 96 106 -6 71 c-4 40 -9 75 -13
78 -134 120 -180 159 -188 159 -6 0 -23 -16 -37 -35 l-27 -35 -40 32 c-21 17
-39 35 -39 39 0 12 191 224 201 224 16 0 310 -267 318 -289 5 -11 10 -69 12
-129 l4 -107 -180 -203 -180 -204 -123 -6 -122 -7 -333 296 -332 296 -7 121
c-7 118 -7 122 16 147 12 14 93 105 180 202 172 194 159 185 291 191 39 2 79
4 91 5 13 1 47 -21 91 -60z m1500 30 c-3 -8 -6 -5 -6 6 -1 11 2 17 5 13 3 -3
4 -12 1 -19z m503 -23 c0 -5 -5 -3 -10 5 -5 8 -10 20 -10 25 0 6 5 3 10 -5 5
-8 10 -19 10 -25z m3980 0 c19 -19 32 -35 29 -35 -3 0 -20 16 -39 35 -19 19
-32 35 -29 35 3 0 20 -16 39 -35z m-5190 -20 c0 -5 -5 -3 -10 5 -5 8 -10 20
-10 25 0 6 5 3 10 -5 5 -8 10 -19 10 -25z m409 -40 c0 -5 -8 6 -19 25 -11 19
-19 40 -19 45 0 6 8 -6 19 -25 11 -19 19 -39 19 -45z m263 62 c-31 -14 -27
-33 32 -159 48 -104 55 -109 107 -82 17 8 33 14 35 11 3 -2 -18 -14 -47 -26
-28 -12 -52 -21 -54 -19 -8 10 -116 260 -113 262 12 10 45 25 53 25 6 0 -1 -5
-13 -12z m3174 -34 c-8 -15 -15 -25 -16 -21 0 12 23 58 27 54 3 -2 -2 -17 -11
-33z m-1236 17 c8 -5 11 -10 5 -10 -5 0 -17 5 -25 10 -8 5 -10 10 -5 10 6 0
17 -5 25 -10z m-3860 -3 c0 -2 -19 -21 -42 -42 l-43 -40 40 43 c36 39 45 47
45 39z m4346 -34 c-8 -15 -15 -25 -16 -21 0 12 23 58 27 54 3 -2 -2 -17 -11
-33z m1644 2 c13 -14 21 -25 18 -25 -2 0 -15 11 -28 25 -13 14 -21 25 -18 25
2 0 15 -11 28 -25z m-3510 2 c0 -8 -11 -19 -25 -25 -37 -17 -45 -14 -12 4 15
8 27 19 27 24 0 6 2 10 5 10 3 0 5 -6 5 -13z m1450 3 c8 -5 11 -10 5 -10 -5 0
-17 5 -25 10 -8 5 -10 10 -5 10 6 0 17 -5 25 -10z m2585 -40 c21 -22 37 -40
34 -40 -3 0 -23 18 -44 40 -21 22 -37 40 -34 40 3 0 23 -18 44 -40z m-4728
-56 c-2 -3 -10 9 -17 27 -12 27 -17 30 -44 26 l-31 -6 30 14 c29 13 30 12 48
-22 10 -19 16 -37 14 -39z m2213 66 c8 -5 11 -10 5 -10 -5 0 -17 5 -25 10 -8
5 -10 10 -5 10 6 0 17 -5 25 -10z m1066 -27 c-8 -15 -15 -25 -16 -21 0 12 23
58 27 54 3 -2 -2 -17 -11 -33z m1075 10 c13 -17 13 -17 -6 -3 -11 8 -22 16
-24 17 -2 2 0 3 6 3 6 0 17 -8 24 -17z m-5521 4 c0 -2 -12 -14 -27 -28 l-28
-24 24 28 c23 25 31 32 31 24z m1750 -22 c-25 -13 -49 -24 -55 -24 -5 0 10 11
35 24 25 13 50 24 55 24 6 0 -10 -11 -35 -24z m1946 -12 c-8 -15 -15 -25 -16
-21 0 12 23 58 27 54 3 -2 -2 -17 -11 -33z m1764 12 c-18 -19 -26 -22 -37 -14
-18 15 -16 18 5 12 10 -2 24 3 31 11 8 9 16 16 19 16 3 0 -5 -11 -18 -25z
m-4780 -20 c0 -5 -5 -3 -10 5 -5 8 -10 20 -10 25 0 6 5 3 10 -5 5 -8 10 -19
10 -25z m2770 25 c8 -5 11 -10 5 -10 -5 0 -17 5 -25 10 -8 5 -10 10 -5 10 6 0
17 -5 25 -10z m-4160 -13 c0 -2 -17 -19 -37 -38 l-38 -34 34 38 c33 34 41 42
41 34z m6268 -20 l22 -23 -43 -40 c-38 -36 -39 -36 -9 -4 37 41 38 47 15 72
-24 26 -10 22 15 -5z m-3908 -17 c-19 -11 -39 -19 -45 -19 -5 0 6 8 25 19 19
11 40 19 45 19 6 0 -6 -8 -25 -19z m2768 -14 c-10 -23 -9 -29 3 -37 9 -5 10
-9 2 -9 -20 0 -25 20 -13 51 7 16 15 28 17 26 2 -3 -2 -17 -9 -31z m1552 -1
c19 -19 32 -35 29 -35 -3 0 -20 16 -39 35 -19 19 -32 35 -29 35 3 0 20 -16 39
-35z m-5659 -152 c162 -146 199 -183 198 -203 l-1 -25 -7 26 c-6 27 -369 359
-392 359 -7 0 -29 -15 -49 -32 -32 -30 -32 -29 5 10 21 23 41 42 43 42 2 0 93
-80 203 -177z m3259 167 c8 -5 11 -10 5 -10 -5 0 -17 5 -25 10 -8 5 -10 10 -5
10 6 0 17 -5 25 -10z m-2351 -95 c0 -5 -11 10 -24 35 -13 25 -24 50 -24 55 0
6 11 -10 24 -35 13 -25 24 -49 24 -55z m2455 71 c-7 -18 -32 -21 -54 -6 -11 8
-8 9 12 4 21 -4 29 -2 34 10 4 9 8 15 10 13 3 -2 2 -12 -2 -21z m-3754 1 c0
-2 -12 -14 -27 -28 l-28 -24 24 28 c23 25 31 32 31 24z m1630 -22 c-25 -13
-49 -24 -55 -24 -5 0 10 11 35 24 25 13 50 24 55 24 6 0 -10 -11 -35 -24z
m-830 -20 c0 -5 -5 -3 -10 5 -5 8 -10 20 -10 25 0 6 5 3 10 -5 5 -8 10 -19 10
-25z m-1510 12 c0 -2 -17 -19 -37 -38 l-38 -34 34 38 c33 34 41 42 41 34z
m4737 -44 c-3 -10 -5 -2 -5 17 0 19 2 27 5 18 2 -10 2 -26 0 -35z m-4261 5
l29 -33 -30 27 c-19 17 -45 28 -70 31 l-40 4 41 1 c34 2 45 -3 70 -30z m6354
-3 c19 -19 32 -35 29 -35 -3 0 -20 16 -39 35 -19 19 -32 35 -29 35 3 0 20 -16
39 -35z m-1561 13 c0 -7 -11 -35 -25 -63 -13 -27 -21 -41 -18 -30 4 11 12 39
18 63 10 39 27 59 25 30z m-4449 -1 c0 -2 -19 -21 -42 -42 l-43 -40 40 43 c36
39 45 47 45 39z m700 -7 c0 -5 -13 -16 -29 -25 -16 -8 -31 -23 -33 -32 -3 -17
-4 -17 -11 0 -5 13 1 21 28 34 19 9 35 20 35 25 0 4 2 8 5 8 3 0 5 -4 5 -10z
m4760 7 c0 -2 -17 -19 -37 -38 l-38 -34 34 38 c33 34 41 42 41 34z m-5940 -20
c0 -2 -19 -21 -42 -42 l-43 -40 40 43 c36 39 45 47 45 39z m290 -10 c0 -2 -15
-18 -33 -35 l-33 -32 -25 27 c-17 20 -18 23 -3 10 27 -23 36 -22 64 8 22 23
30 29 30 22z m1393 -75 c-14 -8 -27 -11 -30 -9 -2 3 5 8 17 12 22 7 22 11 6
60 -4 11 2 4 13 -15 l19 -35 -25 -13z m2741 15 c7 -6 6 -7 -4 -4 -8 2 -16 16
-17 33 -1 25 0 26 4 4 3 -14 10 -29 17 -33z m-4863 9 c-22 -23 -22 -27 -15
-172 6 -149 6 -149 38 -184 l31 -35 -36 33 -36 33 -7 151 c-7 147 -7 151 15
174 12 13 25 24 27 24 3 0 -5 -11 -17 -24z m7004 -16 c21 -22 37 -40 34 -40
-3 0 -23 18 -44 40 -21 22 -37 40 -34 40 3 0 23 -18 44 -40z m-715 17 c0 -2
-17 -19 -37 -38 l-38 -34 34 38 c33 34 41 42 41 34z m-5450 -10 c0 -2 -19 -21
-42 -42 l-43 -40 40 43 c36 39 45 47 45 39z m759 -72 c0 -5 -8 6 -19 25 -11
19 -19 40 -19 45 0 6 8 -6 19 -25 11 -19 19 -39 19 -45z m3331 45 c8 -5 11
-10 5 -10 -5 0 -17 5 -25 10 -8 5 -10 10 -5 10 6 0 17 -5 25 -10z m-4580 -4
c0 -2 -8 -10 -17 -17 -16 -13 -17 -12 -4 4 13 16 21 21 21 13z m4956 -33 c-8
-15 -15 -25 -16 -21 0 12 23 58 27 54 3 -2 -2 -17 -11 -33z m-3276 7 c-19 -11
-39 -19 -45 -19 -5 0 6 8 25 19 19 11 40 19 45 19 6 0 -6 -8 -25 -19z m4180
-3 c0 -2 -17 -19 -37 -38 l-38 -34 34 38 c33 34 41 42 41 34z m870 -32 c19
-19 32 -35 29 -35 -3 0 -20 16 -39 35 -19 19 -32 35 -29 35 3 0 20 -16 39 -35z
m-5150 -10 c-25 -13 -49 -24 -55 -24 -5 0 10 11 35 24 25 13 50 24 55 24 6 0
-10 -11 -35 -24z m1790 10 c394 -24 841 -165 1200 -381 405 -243 742 -581 982
-986 l69 -118 2234 0 c1229 0 2236 -3 2238 -7 3 -5 -152 -293 -344 -640 l-350
-633 20 -27 c20 -30 667 -1201 677 -1227 6 -14 -207 -16 -2207 -16 -1218 0
-2224 -3 -2236 -6 -15 -4 -46 -47 -96 -132 -138 -234 -288 -423 -485 -613
-432 -415 -989 -680 -1587 -754 -173 -22 -497 -22 -670 0 -590 73 -1147 336
-1575 742 -201 191 -349 377 -496 622 l-81 136 -2222 3 c-2007 2 -2223 4
-2217 18 10 26 657 1197 677 1227 l20 27 -350 633 -349 632 262 6 c143 4 1146
7 2228 8 l1967 1 69 118 c479 807 1319 1321 2242 1372 132 7 189 6 380 -5z
m-2988 -28 c-37 -38 -38 -43 -15 -71 13 -15 10 -14 -10 3 l-27 25 37 38 c20
21 39 38 42 38 3 0 -9 -15 -27 -33z m917 -62 c0 -5 -11 10 -24 35 -13 25 -24
50 -24 55 0 6 11 -10 24 -35 13 -25 24 -49 24 -55z m-1317 56 c2 -17 1 -28 -4
-25 -8 5 -12 54 -4 54 2 0 6 -13 8 -29z m4788 19 c8 -5 11 -10 5 -10 -5 0 -17
5 -25 10 -8 5 -10 10 -5 10 6 0 17 -5 25 -10z m153 -34 c-14 -27 -21 -33 -33
-26 -13 8 -13 10 1 10 9 0 22 14 29 30 7 17 15 29 17 26 2 -2 -4 -20 -14 -40z
m1437 36 c0 -4 -10 -13 -22 -21 -23 -14 -23 -14 -4 8 20 22 26 25 26 13z
m-4880 -42 c-19 -11 -39 -19 -45 -19 -5 0 6 8 25 19 19 11 40 19 45 19 6 0 -6
-8 -25 -19z m3360 10 c8 -5 11 -10 5 -10 -5 0 -17 5 -25 10 -8 5 -10 10 -5 10
6 0 17 -5 25 -10z m1567 -85 c-37 -35 -51 -36 -19 -2 28 29 28 44 0 76 -13 14
-6 10 15 -8 l37 -35 -33 -31z m-637 82 c0 -2 -17 -19 -37 -38 l-38 -34 34 38
c33 34 41 42 41 34z m540 0 c0 -2 -17 -19 -37 -38 l-38 -34 34 38 c33 34 41
42 41 34z m529 -79 c-2 -2 -24 -21 -49 -43 l-45 -40 38 40 c20 23 37 45 37 50
0 5 -15 25 -32 45 -24 26 -21 24 12 -7 24 -23 42 -44 39 -45z m-5459 27 c-47
-25 -80 -32 -80 -15 0 5 6 7 14 4 8 -3 31 4 53 15 21 11 43 20 48 20 6 0 -10
-11 -35 -24z m-1320 -20 c13 -14 21 -25 18 -25 -2 0 -15 11 -28 25 -13 14 -21
25 -18 25 2 0 15 -11 28 -25z m5630 2 c0 -2 -17 -19 -37 -38 l-38 -34 34 38
c33 34 41 42 41 34z m-5250 -42 c19 -19 32 -35 29 -35 -3 0 -20 16 -39 35 -19
19 -32 35 -29 35 3 0 20 -16 39 -35z m5780 32 c0 -2 -17 -19 -37 -38 l-38 -34
34 38 c33 34 41 42 41 34z m-5172 -281 l-22 -21 17 21 c15 18 17 38 13 150
l-5 129 10 -129 c10 -128 10 -130 -13 -150z m-433 234 c3 -5 -2 -10 -11 -10
-10 0 -32 -14 -49 -30 l-31 -30 -20 21 c-19 22 -19 22 3 8 21 -13 26 -11 55
19 35 34 43 38 53 22z m-465 -25 c13 -14 21 -25 18 -25 -2 0 -15 11 -28 25
-13 14 -21 25 -18 25 2 0 15 -11 28 -25z m569 -95 l-2 -25 -4 25 c-3 14 -23
45 -46 70 l-42 45 48 -45 c34 -32 47 -51 46 -70z m4891 107 c0 -2 -17 -19 -37
-38 l-38 -34 34 38 c33 34 41 42 41 34z m530 -10 c0 -2 -17 -19 -37 -38 l-38
-34 34 38 c33 34 41 42 41 34z m290 -22 c13 -14 21 -25 18 -25 -2 0 -15 11
-28 25 -13 14 -21 25 -18 25 2 0 15 -11 28 -25z m310 12 c0 -2 -17 -19 -37
-38 l-38 -34 34 38 c33 34 41 42 41 34z m-1231 -57 c7 0 9 -5 5 -11 -4 -7 -16
-1 -33 15 -32 31 -38 31 -65 9 -15 -13 -14 -10 3 10 l25 27 26 -25 c14 -14 32
-25 39 -25z m-5269 -15 c13 -14 21 -25 18 -25 -2 0 -15 11 -28 25 -13 14 -21
25 -18 25 2 0 15 -11 28 -25z m5150 12 c0 -2 -19 -21 -42 -42 l-43 -40 40 43
c36 39 45 47 45 39z m660 -10 c0 -2 -17 -19 -37 -38 l-38 -34 34 38 c33 34 41
42 41 34z m450 -22 c13 -14 21 -25 18 -25 -2 0 -15 11 -28 25 -13 14 -21 25
-18 25 2 0 15 -11 28 -25z m150 12 c0 -2 -17 -19 -37 -38 l-38 -34 34 38 c33
34 41 42 41 34z m-6890 -42 c19 -19 32 -35 29 -35 -3 0 -20 16 -39 35 -19 19
-32 35 -29 35 3 0 20 -16 39 -35z m570 -30 c13 -14 21 -25 18 -25 -2 0 -15 11
-28 25 -13 14 -21 25 -18 25 2 0 15 -11 28 -25z m4947 -13 c-32 -33 -33 -39
-10 -66 13 -15 10 -14 -10 3 l-27 25 32 33 c17 18 34 33 37 33 3 0 -7 -13 -22
-28z m693 25 c0 -2 -17 -19 -37 -38 l-38 -34 34 38 c33 34 41 42 41 34z m600
-11 c0 -3 -4 -8 -10 -11 -5 -3 -10 -1 -10 4 0 6 5 11 10 11 6 0 10 -2 10 -4z
m-6720 -51 c19 -19 32 -35 29 -35 -3 0 -20 16 -39 35 -19 19 -32 35 -29 35 3
0 20 -16 39 -35z m850 32 c0 -2 -15 -16 -32 -33 l-33 -29 29 33 c28 30 36 37
36 29z m-280 -62 c13 -14 21 -25 18 -25 -2 0 -15 11 -28 25 -13 14 -21 25 -18
25 2 0 15 -11 28 -25z m5470 22 c0 -2 -17 -19 -37 -38 l-38 -34 34 38 c33 34
41 42 41 34z m-4860 -20 c0 -2 -19 -21 -42 -42 l-43 -40 40 43 c36 39 45 47
45 39z m-1085 -57 c21 -22 37 -40 34 -40 -3 0 -23 18 -44 40 -21 22 -37 40
-34 40 3 0 23 -18 44 -40z m650 0 c-13 -14 -31 -20 -61 -20 -24 0 -45 3 -47 8
-3 4 16 5 42 4 34 -3 51 1 60 12 8 9 16 16 19 16 3 0 -3 -9 -13 -20z m4735
-15 c19 -19 32 -35 29 -35 -3 0 -20 16 -39 35 -19 19 -32 35 -29 35 3 0 20
-16 39 -35z m452 -8 c-12 -13 -22 -29 -22 -36 0 -7 -5 -9 -11 -5 -7 4 0 17 17
35 15 16 30 29 33 29 2 0 -5 -10 -17 -23z m-4832 -10 c0 -2 -19 -21 -42 -42
l-43 -40 40 43 c36 39 45 47 45 39z m-915 -47 c21 -22 37 -40 34 -40 -3 0 -23
18 -44 40 -21 22 -37 40 -34 40 3 0 23 -18 44 -40z m5365 -15 c19 -19 32 -35
29 -35 -3 0 -20 16 -39 35 -19 19 -32 35 -29 35 3 0 20 -16 39 -35z m393 -28
c-4 -7 -8 -6 -11 3 -3 8 -10 22 -16 30 -6 8 -1 7 11 -4 13 -10 20 -23 16 -29z
m-5668 -37 c21 -22 37 -40 34 -40 -3 0 -23 18 -44 40 -21 22 -37 40 -34 40 3
0 23 -18 44 -40z m745 37 c0 -2 -19 -21 -42 -42 l-43 -40 40 43 c36 39 45 47
45 39z m4900 -20 c0 -2 -12 -14 -27 -28 l-28 -24 24 28 c23 25 31 32 31 24z
m-290 -42 c19 -19 32 -35 29 -35 -3 0 -20 16 -39 35 -19 19 -32 35 -29 35 3 0
20 -16 39 -35z m-5265 -55 c21 -22 37 -40 34 -40 -3 0 -23 18 -44 40 -21 22
-37 40 -34 40 3 0 23 -18 44 -40z m5475 27 c0 -2 -12 -14 -27 -28 l-28 -24 24
28 c23 25 31 32 31 24z m-4910 -10 c0 -2 -17 -19 -37 -38 l-38 -34 34 38 c33
34 41 42 41 34z m4810 -69 c8 -3 10 -7 4 -11 -6 -3 -28 13 -50 36 -36 39 -37
40 -4 11 19 -17 42 -34 50 -36z m-5285 -28 c21 -22 37 -40 34 -40 -3 0 -23 18
-44 40 -21 22 -37 40 -34 40 3 0 23 -18 44 -40z m375 -14 c-24 -24 -32 -25
-180 -30 -119 -3 -135 -2 -70 4 47 4 117 8 156 9 57 1 74 5 89 21 10 11 21 20
24 20 3 0 -6 -11 -19 -24z m-2307 -3488 c452 -1426 1542 -2592 2937 -3141 468
-184 947 -295 1463 -337 165 -13 589 -13 754 0 1538 126 2897 910 3765 2175
259 377 495 861 635 1303 l48 152 32 0 c18 0 33 -2 33 -4 0 -4 -76 -247 -106
-341 -33 -99 -118 -303 -194 -460 -365 -762 -877 -1385 -1561 -1902 -310 -235
-767 -492 -1139 -641 -165 -66 -505 -172 -710 -221 -760 -184 -1600 -184
-2360 0 -205 49 -545 155 -710 221 -272 109 -683 326 -929 491 -321 215 -658
504 -915 787 -290 318 -492 594 -687 940 -212 377 -315 623 -463 1108 -7 20
-4 22 26 22 l33 0 48 -152z m8082 2 c58 -39 105 -73 105 -75 0 -3 -45 -73
-100 -155 l-101 -151 -45 32 c-25 17 -58 35 -72 39 -26 8 -26 8 -4 9 13 1 36
-7 50 -18 72 -50 62 -55 162 94 49 74 90 139 90 144 0 13 -175 131 -209 141
-24 8 -25 8 -3 9 13 1 69 -30 127 -69z m-168 54 c-3 -3 -12 -4 -19 -1 -8 3 -5
6 6 6 11 1 17 -2 13 -5z m-50 -10 c-3 -3 -12 -4 -19 -1 -8 3 -5 6 6 6 11 1 17
-2 13 -5z m-6292 -12 c-6 -5 -183 -125 -394 -268 -211 -142 -387 -268 -392
-279 -8 -19 -9 -19 -6 2 1 18 90 83 392 287 215 146 394 265 400 266 6 0 6 -3
0 -8z m48 1 c-7 -2 -19 -2 -25 0 -7 3 -2 5 12 5 14 0 19 -2 13 -5z m6194 1
c-3 -3 -12 -4 -19 -1 -8 3 -5 6 6 6 11 1 17 -2 13 -5z m-6140 -10 c-3 -3 -12
-4 -19 -1 -8 3 -5 6 6 6 11 1 17 -2 13 -5z m6090 0 c-3 -3 -12 -4 -19 -1 -8 3
-5 6 6 6 11 1 17 -2 13 -5z m-6040 -10 c-3 -3 -12 -4 -19 -1 -8 3 -5 6 6 6 11
1 17 -2 13 -5z m5990 0 c-3 -3 -12 -4 -19 -1 -8 3 -5 6 6 6 11 1 17 -2 13 -5z
m-5934 -11 c-7 -2 -19 -2 -25 0 -7 3 -2 5 12 5 14 0 19 -2 13 -5z m5891 -5
c-4 -7 -79 -120 -166 -251 -88 -131 -163 -248 -168 -260 -7 -18 -9 -18 -9 -4
-1 16 333 527 345 527 3 0 2 -6 -2 -12z m-5841 -5 c-7 -2 -19 -2 -25 0 -7 3
-2 5 12 5 14 0 19 -2 13 -5z m219 -253 c176 -259 179 -265 158 -345 -6 -20 -7
-11 -4 30 l5 60 -168 247 c-92 136 -174 250 -183 252 -8 3 -6 4 5 3 13 -2 71
-78 187 -247z m5978 203 l57 -37 -55 -85 c-30 -47 -56 -87 -58 -89 -1 -2 -20
8 -41 22 -39 26 -40 26 -107 12 -37 -7 -68 -15 -70 -17 -2 -2 -37 -57 -79
-122 l-76 -117 12 -63 13 -62 93 -64 93 -64 67 14 66 14 108 160 c60 88 111
165 115 172 4 7 65 23 135 37 l129 25 134 -90 c74 -49 134 -91 134 -93 0 -5
38 -193 45 -223 7 -31 -284 -470 -317 -478 -13 -3 -69 -14 -126 -25 l-104 -19
-54 36 c-30 20 -54 40 -54 45 0 7 87 143 106 167 2 2 19 -7 39 -19 30 -19 44
-21 87 -16 28 4 60 12 70 17 10 6 53 62 94 126 l76 116 -12 64 -12 64 -90 60
c-84 57 -92 60 -131 54 -94 -14 -95 -15 -212 -193 l-110 -167 -125 -26 -125
-25 -135 89 c-74 50 -137 94 -141 98 -3 5 -15 63 -28 129 l-23 120 148 223
149 222 105 21 c142 29 145 29 210 -13z m-6333 -3 c59 -11 117 -24 128 -29 11
-5 86 -107 168 -227 l148 -219 -21 -105 c-11 -58 -23 -114 -25 -126 -4 -19
-132 -114 -153 -114 -5 0 -34 38 -65 84 l-56 84 54 37 c48 33 55 43 64 87 6
27 11 58 11 69 0 11 -35 71 -77 134 -76 111 -79 114 -126 124 -26 6 -58 11
-70 11 -29 0 -639 -413 -654 -442 -6 -13 -14 -45 -18 -73 -6 -50 -6 -50 74
-166 l80 -117 65 -12 64 -12 106 71 c58 39 106 75 106 79 0 4 -12 25 -26 46
-21 31 -24 40 -13 47 62 41 81 50 88 43 13 -14 162 -238 164 -246 1 -3 -77
-60 -173 -126 l-176 -120 -124 25 c-69 13 -128 27 -131 31 -3 4 -72 104 -152
222 l-145 216 26 126 27 127 360 245 c198 134 361 245 362 245 1 1 51 -8 110
-19z m6938 -303 c125 -83 145 -101 144 -126 0 -10 -4 -8 -9 6 -6 14 -77 67
-174 130 -90 60 -165 111 -165 116 -1 8 37 -15 204 -126z m-228 117 c-3 -3
-12 -4 -19 -1 -8 3 -5 6 6 6 11 1 17 -2 13 -5z m-50 -10 c-3 -3 -12 -4 -19 -1
-8 3 -5 6 6 6 11 1 17 -2 13 -5z m-209 -46 c-9 -7 -66 -88 -127 -180 -61 -93
-117 -168 -124 -168 -8 0 -9 3 -1 8 6 4 57 77 114 162 112 169 128 190 143
190 6 0 4 -6 -5 -12z m-328 -15 c-14 -3 -121 -159 -133 -193 -4 -12 -6 -11 -6
3 -1 28 117 197 137 196 13 -1 14 -2 2 -6z m-6145 -12 c-6 -5 -131 -91 -280
-191 -148 -100 -278 -189 -287 -198 -10 -8 -18 -11 -18 -6 0 5 132 98 292 207
264 178 322 215 293 188z m146 -102 c33 -50 59 -93 56 -95 -2 -3 -28 32 -58
77 -29 45 -60 88 -67 96 -7 7 -9 13 -3 13 6 0 38 -41 72 -91z m6966 -111 c-3
-8 -6 -5 -6 6 -1 11 2 17 5 13 3 -3 4 -12 1 -19z m-8010 -30 c-3 -7 -5 -2 -5
12 0 14 2 19 5 13 2 -7 2 -19 0 -25z m1090 0 c-3 -8 -6 -5 -6 6 -1 11 2 17 5
13 3 -3 4 -12 1 -19z m5480 0 c-3 -8 -6 -5 -6 6 -1 11 2 17 5 13 3 -3 4 -12 1
-19z m1450 -20 c-3 -8 -6 -5 -6 6 -1 11 2 17 5 13 3 -3 4 -12 1 -19z m-1026
-28 c34 -22 58 -40 53 -40 -5 0 -36 18 -69 40 -33 22 -57 40 -53 40 4 0 35
-18 69 -40z m-7006 -25 c-4 -25 -9 -44 -12 -41 -2 2 -1 25 2 51 4 25 9 44 12
41 2 -2 1 -25 -2 -51z m1095 46 c0 -5 -29 -28 -65 -51 -36 -23 -65 -44 -65
-47 0 -13 185 -273 194 -273 20 0 228 145 236 165 l9 20 0 -20 c1 -16 -30 -42
-118 -103 -66 -45 -124 -82 -128 -82 -9 0 -203 284 -203 297 1 4 31 29 68 54
78 55 72 51 72 40z m5497 -23 c-3 -8 -6 -5 -6 6 -1 11 2 17 5 13 3 -3 4 -12 1
-19z m1076 -36 c20 -14 37 -28 37 -32 0 -11 -128 73 -129 84 -1 8 7 3 92 -52z
m-116 42 c-3 -3 -12 -4 -19 -1 -8 3 -5 6 6 6 11 1 17 -2 13 -5z m-52 -21 c-8
-10 -63 -90 -122 -178 -60 -88 -115 -160 -123 -161 -8 0 -10 1 -4 3 6 2 64 83
128 178 64 96 121 175 126 175 5 0 3 -8 -5 -17z m542 -5 c-3 -8 -6 -5 -6 6 -1
11 2 17 5 13 3 -3 4 -12 1 -19z m-6610 -30 c-3 -7 -5 -2 -5 12 0 14 2 19 5 13
2 -7 2 -19 0 -25z m5170 0 c-3 -8 -6 -5 -6 6 -1 11 2 17 5 13 3 -3 4 -12 1
-19z m-5790 -15 c6 -10 65 -98 131 -195 l120 -177 -223 -151 c-141 -95 -232
-150 -247 -149 -20 1 -20 2 -3 6 32 7 444 287 445 301 0 20 -232 362 -246 362
-15 0 -182 -112 -188 -126 -2 -7 6 -28 20 -47 13 -20 24 -38 24 -41 0 -8 -121
-88 -126 -83 -2 2 21 20 51 41 30 20 55 41 55 47 0 6 -9 23 -19 38 -11 15 -21
33 -23 39 -2 9 196 152 212 152 3 0 10 -8 17 -17z m7240 -5 c-3 -8 -6 -5 -6 6
-1 11 2 17 5 13 3 -3 4 -12 1 -19z m-6630 -30 c-3 -7 -5 -2 -5 12 0 14 2 19 5
13 2 -7 2 -19 0 -25z m-1440 -10 c-3 -7 -5 -2 -5 12 0 14 2 19 5 13 2 -7 2
-19 0 -25z m6630 10 c-3 -8 -6 -5 -6 6 -1 11 2 17 5 13 3 -3 4 -12 1 -19z
m1283 -302 c-119 -179 -175 -256 -188 -255 -13 1 -13 2 -2 6 22 6 350 504 351
533 2 24 2 24 6 -2 3 -21 -30 -78 -167 -282z m-6483 252 c-3 -7 -5 -2 -5 12 0
14 2 19 5 13 2 -7 2 -19 0 -25z m-1270 -275 c93 -137 175 -248 187 -253 12 -5
15 -9 6 -9 -8 0 -20 3 -27 7 -6 4 -86 117 -177 252 -131 193 -166 251 -165
275 l2 30 4 -29 c3 -16 79 -139 170 -273z m180 275 c-3 -8 -6 -5 -6 6 -1 11 2
17 5 13 3 -3 4 -12 1 -19z m6300 0 c-3 -8 -6 -5 -6 6 -1 11 2 17 5 13 3 -3 4
-12 1 -19z m1037 -92 c-31 -47 -61 -86 -66 -86 -5 0 -3 6 4 14 8 7 36 47 63
89 27 41 51 74 53 72 2 -2 -22 -42 -54 -89z m-690 -165 c-5 -6 -344 220 -344
229 0 4 78 -45 174 -109 96 -64 172 -118 170 -120z m-6541 72 c11 -13 16 -23
10 -23 -10 0 -123 163 -123 177 0 4 21 -24 46 -62 26 -39 56 -80 67 -92z
m1460 -4 c116 -78 216 -145 221 -150 5 -5 -22 -55 -65 -120 -41 -61 -77 -116
-80 -122 -4 -6 -21 -1 -42 12 l-36 22 -55 -83 c-31 -46 -56 -88 -56 -94 0 -15
230 -163 244 -158 6 2 35 41 64 87 49 76 52 83 35 94 -58 39 -60 28 23 153 42
63 80 119 84 123 6 7 410 -251 443 -283 5 -4 -28 -63 -73 -129 l-81 -122 -33
20 c-31 20 -34 20 -48 3 -12 -15 -402 -606 -422 -639 -4 -8 6 -21 27 -35 l35
-22 -81 -121 c-44 -66 -81 -121 -82 -123 -1 -2 -103 64 -227 145 l-224 148 78
119 c43 65 80 121 82 123 3 3 19 -5 35 -17 17 -11 36 -18 42 -14 6 3 39 50 74
103 42 64 60 100 54 107 -14 17 -223 154 -234 154 -9 0 -41 -46 -128 -181
l-18 -28 35 -23 35 -24 -76 -115 c-41 -63 -79 -118 -83 -122 -4 -4 -107 58
-229 138 l-222 146 22 37 c13 20 49 77 81 125 l59 88 30 -21 c16 -12 34 -20
39 -18 9 3 427 630 437 655 2 6 -9 19 -26 29 -17 10 -31 22 -31 26 0 8 153
248 158 248 1 0 98 -64 215 -141z m4511 -35 c58 -85 106 -157 106 -160 0 -2
-55 -40 -122 -85 l-121 -81 -18 23 c-10 13 -19 27 -19 32 0 13 -19 8 -55 -15
-19 -13 -35 -28 -35 -34 0 -18 429 -649 444 -652 8 -2 26 4 41 14 14 9 27 15
29 13 27 -36 156 -231 156 -237 0 -4 -99 -73 -220 -155 l-219 -148 -73 108
c-40 59 -77 114 -82 121 -5 10 2 22 25 41 l32 27 -219 327 c-120 179 -225 326
-233 327 -8 0 -29 -12 -48 -26 l-34 -26 21 -33 21 -33 -112 -77 c-62 -42 -117
-79 -124 -81 -6 -3 -58 65 -116 152 -99 150 -103 157 -84 170 11 7 229 155
485 328 256 172 466 314 467 315 1 1 49 -69 107 -155z m1079 61 c28 -19 48
-35 44 -35 -5 0 -28 14 -52 30 -24 17 -46 30 -49 30 -8 0 -186 -268 -186 -280
0 -5 45 -40 100 -77 55 -36 98 -68 96 -70 -5 -5 -216 135 -216 142 0 12 194
295 202 295 5 0 32 -16 61 -35z m94 -21 c-3 -3 -12 -4 -19 -1 -8 3 -5 6 6 6
11 1 17 -2 13 -5z m-360 -30 c-3 -3 -12 -4 -19 -1 -8 3 -5 6 6 6 11 1 17 -2
13 -5z m-50 -10 c-3 -3 -12 -4 -19 -1 -8 3 -5 6 6 6 11 1 17 -2 13 -5z m-50
-10 c-3 -3 -12 -4 -19 -1 -8 3 -5 6 6 6 11 1 17 -2 13 -5z m-50 -10 c-3 -3
-12 -4 -19 -1 -8 3 -5 6 6 6 11 1 17 -2 13 -5z m-50 -10 c-3 -3 -12 -4 -19 -1
-8 3 -5 6 6 6 11 1 17 -2 13 -5z m666 -261 c-7 -2 -19 -2 -25 0 -7 3 -2 5 12
5 14 0 19 -2 13 -5z m-50 -10 c-7 -2 -19 -2 -25 0 -7 3 -2 5 12 5 14 0 19 -2
13 -5z m-50 -10 c-7 -2 -19 -2 -25 0 -7 3 -2 5 12 5 14 0 19 -2 13 -5z m-7186
-9 c-3 -3 -12 -4 -19 -1 -8 3 -5 6 6 6 11 1 17 -2 13 -5z m7140 0 c-3 -3 -12
-4 -19 -1 -8 3 -5 6 6 6 11 1 17 -2 13 -5z m-7084 -11 c-7 -2 -19 -2 -25 0 -7
3 -2 5 12 5 14 0 19 -2 13 -5z m7034 1 c-3 -3 -12 -4 -19 -1 -8 3 -5 6 6 6 11
1 17 -2 13 -5z m-6980 -10 c-3 -3 -12 -4 -19 -1 -8 3 -5 6 6 6 11 1 17 -2 13
-5z m50 -10 c-3 -3 -12 -4 -19 -1 -8 3 -5 6 6 6 11 1 17 -2 13 -5z m4113 -308
c-168 -34 -312 -66 -320 -71 -12 -6 -13 -5 -2 6 13 14 544 127 597 127 17 0
-107 -28 -275 -62z m-1260 -2 c162 -30 300 -60 307 -67 6 -7 47 -65 91 -129
l80 -116 -88 -472 c-49 -260 -90 -473 -92 -474 -2 -1 -59 -41 -128 -87 l-125
-85 -302 56 c-167 31 -304 58 -306 61 -2 2 -42 60 -89 129 l-85 125 88 469
c49 258 90 470 93 473 9 10 250 173 255 173 3 0 138 -25 301 -56z m1632 -85
c68 -45 110 -80 113 -93 17 -75 25 -119 23 -121 -2 -2 -41 -10 -88 -20 -47 -9
-93 -18 -102 -21 -13 -4 -18 4 -23 40 -6 37 -14 49 -48 74 -76 53 -71 53 -220
22 -76 -15 -139 -29 -141 -31 -32 -41 -66 -103 -66 -121 1 -13 9 -63 20 -113
19 -95 30 -110 106 -151 31 -17 37 -16 231 22 l199 40 95 -63 c51 -35 100 -67
107 -71 7 -5 26 -80 44 -167 l31 -160 -68 -105 -68 -106 -268 -53 -268 -54
-93 63 c-51 35 -98 68 -105 74 -7 6 -18 41 -26 77 l-14 66 103 20 103 20 9
-41 c6 -35 16 -47 63 -79 l56 -38 143 28 143 28 36 58 37 58 -21 102 -21 102
-57 40 -58 39 -192 -37 c-106 -21 -198 -38 -205 -37 -7 0 -59 31 -116 69
l-103 69 -32 162 -32 162 63 95 c35 53 66 100 69 106 4 5 123 33 265 62 143
29 261 53 264 54 2 1 53 -31 112 -70z m197 -122 c13 -62 25 -121 27 -133 5
-20 -5 -23 -158 -53 -90 -18 -171 -34 -180 -37 -13 -4 -19 6 -28 53 -6 32 -16
67 -22 78 -10 18 -9 18 5 7 8 -7 18 -36 22 -63 4 -30 13 -53 21 -56 16 -6 288
44 315 58 15 8 14 19 -7 125 -13 64 -29 123 -35 131 -9 11 -9 12 3 8 10 -4 23
-43 37 -118z m-928 76 c-5 -10 -34 -54 -64 -98 l-53 -79 38 -191 c21 -104 41
-199 44 -210 4 -11 3 -16 -2 -12 -5 5 -27 99 -50 210 l-40 202 64 98 c36 53
67 97 69 97 2 0 -1 -8 -6 -17z m410 -149 c-63 -13 -116 -22 -119 -20 -2 2 23
10 55 16 32 7 74 16 93 20 19 4 46 8 60 8 14 0 -26 -11 -89 -24z m-149 -91
c-3 -16 -7 -22 -10 -15 -4 13 4 42 11 42 2 0 2 -12 -1 -27z m5 -65 c-3 -7 -5
-2 -5 12 0 14 2 19 5 13 2 -7 2 -19 0 -25z m10 -50 c-3 -7 -5 -2 -5 12 0 14 2
19 5 13 2 -7 2 -19 0 -25z m499 0 c4 -7 3 -8 -4 -4 -7 4 -105 -11 -218 -34
-141 -28 -210 -38 -217 -31 -7 7 -4 9 9 6 10 -3 102 13 204 34 211 44 216 45
226 29z m283 -358 l40 -195 -86 -131 -87 -130 -303 -60 -303 -61 -52 35 c-29
19 -57 39 -63 45 -10 11 27 -11 83 -48 l32 -22 301 60 301 60 83 124 82 124
-41 204 c-23 113 -38 201 -34 197 4 -4 26 -95 47 -202z m-921 18 l73 -49 205
41 c162 33 209 39 218 29 8 -9 8 -10 0 -6 -6 4 -104 -12 -216 -34 l-205 -41
-79 52 c-44 29 -83 57 -89 63 -15 15 10 0 93 -55z m571 -96 c7 -35 10 -66 8
-68 -2 -3 -10 24 -16 58 -7 35 -14 72 -17 83 -4 15 -3 17 4 5 5 -8 15 -44 21
-78z m-332 -61 c-3 -10 -5 -7 -6 7 0 12 -7 25 -15 28 -14 6 -315 -51 -325 -61
-3 -3 5 -58 18 -121 12 -64 20 -118 18 -120 -2 -3 -16 53 -30 123 -14 71 -24
128 -24 129 1 1 81 17 177 36 172 34 175 34 183 14 4 -11 6 -27 4 -35z m32
-76 c16 -20 16 -20 -6 -1 -13 11 -22 29 -22 40 1 20 2 20 6 1 3 -11 12 -29 22
-40z m266 5 c-3 -5 -16 -10 -28 -9 -20 1 -20 2 3 9 14 4 26 8 28 9 2 1 0 -3
-3 -9z m-62 -17 c-7 -2 -19 -2 -25 0 -7 3 -2 5 12 5 14 0 19 -2 13 -5z m-143
-29 c0 -2 -9 0 -20 6 -11 6 -20 13 -20 16 0 2 9 0 20 -6 11 -6 20 -13 20 -16z
m93 19 c-7 -2 -19 -2 -25 0 -7 3 -2 5 12 5 14 0 19 -2 13 -5z m-50 -10 c-7 -2
-19 -2 -25 0 -7 3 -2 5 12 5 14 0 19 -2 13 -5z m-2214 -747 c158 -45 352 -89
530 -121 79 -13 146 -27 148 -29 4 -4 -43 -87 -86 -151 -15 -22 -52 -83 -82
-135 -30 -52 -58 -103 -64 -112 -10 -18 -190 -322 -205 -348 -5 -8 -42 -69
-83 -135 -40 -66 -92 -154 -116 -195 -24 -41 -52 -87 -62 -102 -11 -15 -19
-29 -19 -32 0 -2 -27 -46 -60 -97 -33 -52 -65 -103 -70 -114 -5 -11 -32 -56
-59 -100 -27 -44 -71 -116 -97 -160 -44 -73 -101 -164 -159 -255 -38 -59 -170
-274 -175 -285 -3 -6 -23 -37 -45 -69 -22 -32 -68 -101 -103 -154 -34 -54 -83
-120 -107 -149 -55 -63 -71 -68 -320 -92 -60 -6 -193 -16 -295 -21 -102 -6
-203 -12 -225 -14 -22 -2 -115 -7 -207 -11 -133 -5 -168 -4 -168 6 0 7 11 85
25 173 14 89 49 330 79 536 92 628 98 675 102 679 1 2 65 5 141 6 76 2 170 6
208 9 39 3 102 8 140 11 231 18 355 47 411 99 19 17 34 34 34 39 0 4 24 40 53
80 49 67 95 135 179 267 103 161 128 201 128 206 0 3 10 20 23 37 25 36 33 49
78 127 18 30 62 105 99 165 37 61 69 115 71 120 18 45 215 355 225 355 7 0 67
-15 133 -34z m3013 -88 c41 -68 101 -168 134 -222 214 -359 366 -604 502 -811
116 -176 152 -225 197 -267 31 -29 126 -64 200 -72 22 -3 74 -9 115 -15 105
-15 354 -31 488 -31 61 0 112 -3 112 -7 0 -5 12 -82 25 -173 14 -91 50 -334
80 -540 30 -206 63 -433 75 -505 11 -71 20 -136 20 -143 0 -11 -38 -12 -202
-7 -112 3 -212 8 -223 10 -11 2 -74 7 -140 10 -323 17 -573 44 -618 67 -25 13
-172 225 -314 454 -7 10 -52 82 -100 158 -120 190 -114 180 -219 356 -12 19
-45 73 -74 120 -87 140 -189 309 -252 415 -32 55 -78 130 -101 168 -41 65
-137 226 -435 725 -79 133 -142 245 -140 247 3 3 70 17 149 30 172 30 408 85
539 124 52 16 98 29 102 30 3 0 39 -54 80 -121z m-7007 -1369 c198 -6 415 -12
483 -14 68 -1 125 -4 127 -7 2 -2 -11 -82 -30 -178 -19 -96 -53 -274 -76 -395
-23 -121 -66 -348 -96 -505 -29 -157 -57 -300 -60 -319 l-6 -33 -446 6 c-534
7 -830 14 -929 22 -40 3 -99 7 -130 9 -63 3 -172 14 -242 24 l-45 6 3 45 c2
25 17 97 34 160 16 63 34 131 38 150 37 152 167 527 247 710 51 117 130 265
161 301 l36 42 285 -7 c158 -4 448 -11 646 -17z m11741 -7 c54 -36 207 -350
284 -582 10 -30 25 -73 33 -95 60 -159 187 -617 187 -676 0 -16 -6 -29 -12
-30 -7 0 -21 -2 -31 -4 -107 -20 -556 -43 -942 -46 -104 -1 -193 -4 -198 -6
-4 -2 -136 -4 -295 -4 l-287 1 -7 32 c-7 32 -31 159 -188 983 -38 204 -72 375
-74 380 -2 6 33 10 93 11 53 0 168 4 256 8 88 4 192 9 230 11 39 2 189 6 335
10 146 4 267 9 269 11 8 7 336 4 347 -4z m-10222 -84 c-9 -71 -14 -73 -14 -5
0 33 4 57 10 57 7 0 8 -19 4 -52z m7796 -15 c0 -25 -2 -44 -4 -42 -8 10 -13
89 -5 89 5 0 9 -21 9 -47z m7 -105 c-3 -8 -6 -5 -6 6 -1 11 2 17 5 13 3 -3 4
-12 1 -19z m-8441 -1226 c-11 -10 -14 3 -8 33 l7 30 3 -28 c2 -16 1 -31 -2
-35z m9073 1 c1 -7 -3 -13 -9 -13 -5 0 -10 17 -9 38 1 33 2 34 9 12 4 -14 8
-31 9 -37z"/>
<path d="M9586 14933 l-189 -3 7 -53 c3 -28 6 -89 6 -134 l0 -83 39 0 39 0 6
-202 c4 -112 7 -299 9 -416 l2 -212 -42 0 -43 0 0 -67 c0 -38 3 -98 7 -135 l6
-68 186 0 c102 0 324 3 494 7 l307 6 0 164 0 163 -141 0 -141 0 7 -29 6 -30
-148 -3 c-81 -2 -149 -3 -149 -3 -1 0 -4 64 -6 143 l-4 142 53 0 c52 0 53 0
53 -30 l0 -30 135 0 135 0 0 196 0 197 -67 -6 c-38 -4 -101 -7 -141 -7 l-74 0
7 -30 7 -30 -56 0 -56 0 0 139 0 138 53 7 c28 3 94 6 145 6 l92 0 0 -30 0 -30
83 0 c45 0 106 3 135 6 l52 7 0 158 0 159 -312 -2 c-172 -2 -398 -4 -502 -5z
m754 -153 l0 -100 -70 0 c-68 0 -70 1 -70 25 l0 25 -215 0 -215 0 0 -77 c0
-43 3 -135 7 -205 l6 -128 114 0 113 0 0 30 0 30 69 0 68 0 7 -121 c4 -67 6
-122 4 -124 -2 -1 -36 -6 -75 -9 l-73 -7 0 30 0 31 -115 0 -115 0 0 -122 c0
-68 3 -160 7 -205 l6 -83 177 0 c215 0 240 4 240 36 0 23 3 24 75 24 l75 0 0
-94 0 -94 -62 -6 c-35 -3 -231 -7 -435 -10 l-373 -5 0 70 0 69 34 0 c19 0 38
4 41 10 3 5 3 221 -1 480 l-7 470 -44 0 -43 0 0 75 0 75 303 3 c166 1 362 3
435 5 l132 2 0 -100z"/>
<path d="M9665 12979 c-22 -4 -98 -18 -170 -30 -71 -11 -155 -29 -185 -39 -30
-9 -95 -30 -145 -45 -49 -15 -103 -33 -120 -40 -16 -8 -59 -26 -95 -40 -277
-114 -593 -328 -825 -560 -229 -230 -443 -544 -555 -815 -17 -41 -34 -82 -39
-90 -21 -39 -101 -308 -119 -401 -47 -241 -52 -294 -52 -559 0 -264 4 -313 50
-555 17 -89 99 -365 121 -405 4 -8 26 -58 49 -111 151 -355 440 -731 754 -982
187 -149 427 -294 616 -372 36 -14 79 -32 95 -40 17 -7 71 -25 120 -40 50 -15
115 -36 145 -45 30 -10 114 -28 185 -39 72 -12 152 -26 178 -31 63 -13 571
-13 634 0 26 5 107 19 178 31 72 11 155 29 185 39 30 9 96 30 145 45 50 15
104 33 120 40 17 8 59 26 95 40 189 78 429 223 616 372 314 251 603 627 754
982 23 53 45 103 49 111 22 40 104 316 121 405 46 242 50 291 50 555 0 264 -4
313 -50 555 -18 90 -100 366 -121 405 -5 8 -22 49 -39 90 -112 271 -326 585
-555 815 -232 232 -548 446 -825 560 -36 14 -78 32 -95 40 -16 7 -70 25 -120
40 -49 15 -115 36 -145 45 -30 10 -113 28 -185 39 -71 12 -152 26 -178 31 -58
12 -585 11 -642 -1z m655 -220 c85 -11 180 -26 210 -33 131 -33 248 -68 280
-85 19 -10 53 -24 75 -31 40 -12 214 -96 310 -148 48 -26 149 -93 280 -184
128 -88 405 -388 531 -571 67 -99 210 -375 234 -452 7 -22 18 -50 26 -62 8
-12 27 -68 43 -125 16 -57 34 -115 39 -129 6 -14 22 -110 38 -215 21 -149 27
-226 27 -364 0 -138 -6 -215 -27 -364 -16 -105 -32 -201 -38 -215 -5 -14 -23
-72 -39 -129 -16 -57 -35 -113 -43 -125 -8 -12 -19 -40 -26 -62 -16 -51 -119
-261 -168 -341 -20 -33 -46 -76 -57 -94 -96 -158 -404 -494 -540 -588 -129
-90 -232 -158 -280 -184 -96 -52 -270 -136 -310 -148 -22 -7 -56 -21 -75 -31
-19 -10 -71 -28 -115 -39 -44 -12 -98 -28 -120 -36 -22 -8 -121 -26 -220 -40
-251 -36 -479 -36 -730 0 -99 14 -198 32 -220 40 -22 8 -76 24 -120 36 -44 11
-96 29 -115 39 -19 10 -53 24 -75 31 -40 12 -214 96 -310 148 -48 26 -151 94
-280 184 -136 94 -444 430 -540 588 -11 18 -37 61 -57 94 -49 80 -152 290
-168 341 -7 22 -18 50 -26 62 -8 12 -27 68 -43 125 -16 57 -34 115 -39 129 -6
14 -22 110 -38 215 -21 149 -27 226 -27 364 0 138 6 215 27 364 16 105 32 201
38 215 5 14 23 72 39 129 16 57 35 113 43 125 8 12 19 40 26 62 24 77 167 353
234 452 126 183 403 483 531 571 131 91 232 158 280 184 96 52 270 136 310
148 22 7 56 21 75 31 19 10 71 28 115 39 44 12 99 28 122 36 56 18 301 54 438
63 142 10 282 4 475 -20z"/>
<path d="M9815 12724 c-16 -2 -73 -9 -125 -15 -111 -12 -291 -50 -405 -86
-134 -42 -344 -133 -459 -200 -60 -35 -110 -63 -112 -63 -2 0 -56 -40 -121
-89 -213 -160 -357 -302 -504 -496 -242 -321 -395 -688 -455 -1090 -22 -147
-25 -483 -5 -625 44 -326 140 -614 293 -880 81 -140 121 -198 226 -326 689
-840 1819 -1111 2813 -673 107 47 276 142 366 205 34 24 66 44 72 44 5 0 14 6
18 13 4 7 44 42 88 79 105 86 284 271 367 378 486 628 626 1439 377 2195 -270
823 -1004 1457 -1849 1599 -183 31 -455 45 -585 30z m505 -79 c381 -57 765
-217 1077 -451 96 -72 293 -262 380 -366 380 -456 577 -1087 522 -1678 -88
-952 -741 -1751 -1652 -2020 -222 -65 -419 -93 -657 -93 -176 0 -294 11 -455
44 -878 177 -1569 835 -1790 1703 -52 206 -69 343 -69 566 0 373 74 691 239
1025 278 564 755 978 1354 1175 153 51 353 94 506 110 122 12 416 4 545 -15z"/>
<path d="M10025 12015 c-41 -11 -61 -26 -112 -80 -48 -51 -63 -74 -63 -97 0
-27 -2 -29 -28 -23 -25 5 -30 2 -44 -32 -28 -64 -33 -109 -13 -121 15 -8 17
-25 14 -154 -5 -166 -5 -167 -119 -292 -66 -73 -115 -163 -126 -231 -8 -56 11
-149 42 -212 l26 -51 -37 -34 c-21 -18 -75 -82 -121 -143 -45 -60 -96 -120
-113 -133 -17 -12 -72 -59 -121 -104 -63 -57 -90 -87 -90 -104 0 -35 -10 -54
-29 -54 -10 0 -35 -15 -57 -33 -80 -66 -121 -87 -171 -86 -98 1 -92 11 45 78
72 35 135 68 141 74 19 19 12 57 -16 83 -25 23 -33 25 -88 19 -94 -10 -121
-22 -172 -80 -38 -42 -59 -56 -101 -69 -58 -17 -122 -52 -122 -67 0 -5 -7 -9
-15 -9 -16 0 -36 19 -83 75 -21 26 -164 240 -244 365 -54 86 -60 90 -135 90
-82 0 -252 -20 -275 -32 -10 -5 -18 -15 -18 -22 0 -26 258 -427 300 -466 3 -3
22 -28 43 -56 20 -29 54 -67 75 -86 37 -34 42 -35 142 -42 57 -3 105 -8 108
-10 2 -3 8 -33 12 -68 15 -112 21 -128 52 -144 37 -19 48 -12 49 34 1 34 2 32
12 -18 11 -49 16 -57 54 -78 39 -21 42 -22 58 -5 15 14 17 30 12 102 -3 48 -8
93 -11 101 -4 11 6 20 35 32 35 15 39 15 28 2 -10 -13 -10 -17 2 -25 8 -5 20
-9 27 -9 7 0 10 -5 7 -10 -4 -6 -16 -10 -28 -8 -20 3 -22 -2 -25 -62 -2 -36 1
-81 7 -100 12 -41 56 -77 102 -87 l32 -6 -5 91 c-4 85 -6 94 -33 122 -26 27
-24 45 2 19 6 -6 23 -9 39 -7 25 3 29 8 32 36 2 18 -3 41 -10 50 -7 9 -8 13
-3 10 6 -3 103 -12 217 -19 l207 -12 -64 -66 c-44 -45 -65 -74 -65 -90 0 -14
-12 -42 -26 -63 -20 -28 -36 -39 -68 -46 -22 -5 -43 -7 -45 -5 -3 2 8 16 24
33 26 27 27 33 23 93 -7 82 -45 147 -86 147 -19 0 -39 -11 -62 -35 -18 -19
-32 -36 -29 -38 2 -2 15 -8 29 -14 l25 -12 -31 0 c-29 -1 -32 -4 -38 -47 -9
-67 -7 -129 4 -158 24 -63 141 -72 247 -19 44 23 62 40 102 103 52 79 101 175
101 197 0 16 43 17 235 3 337 -23 308 -18 380 -74 22 -17 64 -47 92 -66 63
-42 67 -64 19 -114 -40 -43 -65 -45 -132 -10 -157 83 -163 85 -248 86 -216 2
-378 -145 -393 -355 -5 -74 -3 -89 22 -152 16 -39 37 -82 48 -97 17 -22 18
-30 7 -43 -7 -8 -21 -15 -32 -15 -33 0 -58 -19 -58 -45 0 -36 93 -95 150 -95
54 0 105 24 132 64 13 17 33 39 45 49 13 10 23 25 23 32 0 24 61 48 131 53 81
6 136 -16 206 -81 85 -78 171 -122 301 -154 111 -26 129 -28 342 -28 184 0
237 3 289 18 102 28 170 59 262 120 204 135 345 326 412 558 21 69 24 75 43
68 12 -4 33 -22 47 -40 32 -41 57 -34 57 15 0 33 -12 51 -91 145 -14 17 -17
26 -8 31 8 6 8 9 -2 12 -9 4 3 20 35 49 27 24 65 58 83 74 19 17 36 42 38 56
8 44 -85 116 -210 163 -55 21 -118 49 -141 62 -22 13 -50 24 -61 24 -23 0 -63
-39 -63 -63 0 -9 -10 -23 -22 -31 l-21 -15 21 -59 c12 -32 22 -62 22 -65 0 -3
-30 -4 -67 -2 -38 2 -120 7 -183 10 -63 3 -133 8 -155 10 -59 6 -181 14 -805
50 -146 9 -275 18 -287 20 -13 3 -30 23 -47 57 -23 46 -24 52 -9 63 9 7 12 15
7 18 -19 11 -141 -26 -210 -64 l-71 -39 -6 41 c-11 80 -151 259 -204 259 -7 0
-13 4 -13 9 0 14 183 176 196 173 13 -3 74 64 101 110 17 28 80 68 107 68 8 0
20 -9 26 -20 12 -22 35 -28 27 -6 -3 8 -26 40 -50 72 -62 82 -98 157 -99 207
-1 51 42 141 111 235 25 35 46 69 46 75 0 18 47 77 61 77 6 0 27 17 46 38 29
32 36 49 41 102 8 75 27 100 74 100 38 0 39 -2 17 -36 -30 -45 -1 -47 34 -2
18 23 32 37 32 32 0 -5 17 -10 38 -10 74 -2 181 -26 203 -45 25 -22 35 -24 45
-8 9 16 92 5 111 -14 13 -13 14 -22 3 -64 -15 -56 -7 -121 15 -130 8 -3 32
-37 53 -77 21 -39 52 -93 68 -121 25 -43 29 -60 29 -125 -1 -63 -6 -86 -31
-140 -17 -36 -45 -83 -63 -104 -48 -59 -26 -58 29 1 44 48 90 139 90 178 0 8
7 15 15 15 8 0 20 9 27 20 10 15 24 20 59 20 26 0 75 -9 109 -20 34 -11 67
-20 72 -20 30 0 165 -76 210 -117 29 -27 80 -69 112 -93 58 -44 146 -149 146
-175 0 -7 -19 -15 -48 -19 -109 -14 -189 -80 -224 -181 -9 -27 -21 -51 -27
-53 -12 -4 -66 46 -94 87 -9 14 -19 22 -23 19 -12 -13 9 -49 62 -105 38 -41
54 -65 54 -85 0 -17 21 -55 61 -107 33 -44 64 -83 69 -86 11 -7 40 22 40 41 0
20 47 111 79 153 22 29 73 61 97 61 3 0 -1 -11 -10 -25 -35 -53 -18 -67 162
-145 79 -34 131 -51 147 -48 14 3 25 2 25 -3 0 -16 106 -109 125 -109 12 0 50
30 93 73 88 89 92 111 32 169 -41 38 -66 46 -88 28 -6 -6 -10 -7 -7 -4 2 4 0
15 -6 25 -7 14 -21 19 -52 20 -23 0 -51 4 -62 9 -16 7 -12 9 20 9 48 1 38 13
-33 36 -45 14 -55 22 -71 58 -11 23 -44 66 -74 95 -52 51 -57 54 -133 66 -74
11 -80 13 -89 42 -20 59 -55 104 -126 161 -40 32 -96 79 -125 105 -110 97
-353 188 -458 171 -32 -5 -34 -3 -46 33 -7 22 -28 68 -48 104 -58 104 -73 140
-74 168 0 44 51 204 78 243 36 53 33 172 -6 184 -11 4 -19 19 -23 43 -2 21
-19 68 -37 105 -24 51 -43 75 -81 102 -52 37 -65 42 -71 24 -2 -7 -30 -6 -88
5 -47 8 -110 17 -142 21 -35 4 -58 12 -62 21 -6 16 -6 16 -71 -1z m-144 -368
c-8 -8 -11 0 -10 29 1 39 1 39 11 11 7 -21 7 -32 -1 -40z m679 -55 c0 -5 -7
-17 -16 -28 -14 -17 -15 -17 -10 -1 3 10 6 23 6 28 0 5 5 9 10 9 6 0 10 -4 10
-8z m-830 -375 c0 -2 -10 -12 -22 -23 l-23 -19 19 23 c18 21 26 27 26 19z
m-1536 -764 c50 -76 61 -100 50 -106 -14 -8 -235 -47 -264 -47 -23 1 -159 214
-145 228 10 10 87 18 192 21 l103 2 64 -98z m3396 -182 c0 -5 14 -14 30 -21
28 -12 41 -30 20 -30 -13 0 -112 20 -130 27 -11 4 -7 9 15 19 35 15 65 18 65
5z m-3134 -201 c29 -27 60 -50 68 -50 9 0 16 -4 16 -9 0 -5 18 -12 40 -16 22
-4 40 -12 40 -20 0 -16 75 -26 109 -14 14 6 31 17 38 26 10 13 27 14 145 4 73
-6 180 -13 238 -17 58 -3 125 -13 150 -22 35 -12 91 -16 250 -17 125 -1 215
-6 231 -12 14 -6 40 -31 58 -55 l32 -43 -28 -3 c-15 -2 -109 2 -208 8 -99 7
-196 14 -215 15 -19 1 -75 5 -125 8 -49 4 -196 14 -325 23 -175 11 -238 19
-246 29 -22 29 -57 34 -86 13 -22 -15 -38 -18 -85 -14 -32 3 -114 11 -183 17
-137 12 -143 14 -196 91 -17 25 -24 42 -18 48 6 6 62 21 124 34 63 13 117 24
119 25 2 1 28 -21 57 -49z m734 -26 c27 -16 50 -33 50 -38 0 -4 -19 -6 -42 -3
-24 4 -94 9 -157 13 l-115 7 60 30 c32 16 70 38 82 48 23 18 24 18 48 -5 14
-12 47 -36 74 -52z m558 -29 l22 -45 -42 0 c-24 0 -73 3 -111 7 -58 5 -65 8
-55 21 18 21 107 61 138 61 20 0 30 -9 48 -44z m437 -111 c143 -9 283 -17 311
-19 145 -8 631 -40 766 -51 l77 -7 20 -46 c22 -51 15 -64 -29 -56 -25 4 -103
9 -310 20 -63 3 -252 15 -420 25 -168 11 -343 22 -390 25 -309 18 -283 14
-310 48 -14 17 -33 43 -43 57 l-17 28 42 -4 c24 -3 160 -12 303 -20z m-1595
-43 c24 -7 24 -8 -7 -12 -21 -4 -34 -1 -37 8 -6 14 5 15 44 4z m1805 -111 c72
-5 173 -12 225 -15 52 -3 140 -10 195 -15 117 -11 218 -17 410 -26 135 -6 229
-19 313 -46 50 -15 57 -41 37 -136 -51 -241 -209 -463 -425 -597 -175 -108
-332 -143 -582 -131 -264 14 -409 58 -539 167 -113 94 -137 104 -234 104 -70
0 -90 -4 -153 -33 -71 -33 -73 -34 -117 -18 -25 8 -45 11 -45 6 0 -12 34 -30
57 -30 33 0 44 -20 28 -51 -38 -72 -105 -87 -186 -41 -51 28 -61 41 -31 43 37
1 55 8 77 29 l23 22 -34 56 c-50 83 -78 181 -70 245 10 73 51 150 112 207 67
63 130 91 219 97 79 6 149 -14 225 -63 25 -15 48 -29 53 -30 4 -1 8 -2 10 -3
34 -28 177 32 177 74 0 23 68 25 128 4 135 -47 228 -63 300 -53 43 6 31 24
-16 24 -54 0 -188 27 -252 51 -77 29 -218 103 -276 145 l-49 36 145 -7 c80 -3
204 -10 275 -15z"/>
<path d="M10001 11417 c-25 -31 -17 -91 14 -105 23 -11 27 -9 34 10 9 25 3 58
-10 58 -5 0 -9 4 -9 10 0 5 7 7 15 4 18 -7 20 7 3 24 -16 16 -33 15 -47 -1z"/>
<path d="M10221 11396 c-18 -21 -25 -84 -12 -100 12 -14 35 -15 62 -2 32 14 5
116 -32 116 -3 0 -12 -6 -18 -14z"/>
<path d="M10134 11109 c-4 -7 -21 -9 -40 -6 -38 6 -43 -2 -16 -25 31 -28 59
-28 71 -1 6 13 11 28 11 33 0 14 -17 12 -26 -1z"/>
<path d="M10050 10918 c-28 -31 -26 -79 6 -117 45 -54 104 -36 104 31 0 18 -2
20 -10 8 -7 -11 -10 -6 -10 21 0 37 -29 79 -55 79 -8 0 -23 -10 -35 -22z"/>
<path d="M10125 10671 c-16 -15 -75 -24 -75 -12 0 6 -8 11 -17 11 -14 -1 -12
-6 10 -25 15 -14 35 -25 43 -25 8 0 14 -4 14 -10 0 -5 11 -10 25 -10 16 0 25
6 25 16 0 9 -5 12 -12 8 -7 -4 -5 2 5 13 9 11 17 25 17 31 0 14 -22 16 -35 3z"/>
<path d="M12053 10033 c-12 -2 -33 -19 -47 -38 -30 -39 -31 -45 -12 -45 17 0
83 -95 92 -133 5 -22 11 -27 31 -24 63 8 66 103 7 195 -19 28 -38 51 -42 51
-4 -1 -17 -4 -29 -6z"/>
<path d="M11923 9908 l-22 -31 33 -41 c37 -46 58 -83 81 -140 26 -67 9 -51
-38 36 -25 46 -55 92 -66 103 -21 18 -22 18 -47 -6 -48 -45 -48 -54 -6 -111
22 -29 53 -83 70 -119 24 -52 37 -68 57 -73 41 -10 57 9 53 65 -3 45 -1 48 24
53 39 8 44 40 18 125 -47 158 -107 211 -157 139z"/>
<path d="M11733 9704 c-18 -14 -33 -29 -33 -34 0 -4 29 -45 64 -90 36 -45 75
-106 87 -136 19 -46 27 -54 49 -54 35 0 50 17 50 58 0 35 -54 162 -70 162 -4
0 -30 27 -57 60 -26 33 -50 60 -53 60 -3 0 -20 -12 -37 -26z"/>
<path d="M4014 10907 c-2 -7 -3 -69 -2 -138 l3 -124 33 -3 32 -3 0 -274 0
-274 -32 -3 -33 -3 0 -135 0 -135 410 0 410 0 0 155 0 155 -133 3 c-127 2
-134 2 -139 -18 -5 -18 -13 -20 -79 -20 l-74 0 0 48 0 47 137 0 138 0 0 180 0
180 -138 0 -137 0 0 48 0 47 74 0 c70 0 75 -1 78 -22 3 -23 6 -23 138 -23
l135 0 0 160 0 160 -408 3 c-330 2 -409 0 -413 -11z"/>
<path d="M4972 10827 l-92 -92 0 -165 0 -165 90 -90 91 -90 -88 -5 -88 -5 -3
-109 -3 -110 93 -93 93 -93 245 0 245 0 87 87 88 88 0 170 0 170 -85 85 -86
85 83 5 83 5 3 119 3 120 -88 88 -88 88 -245 0 -245 0 -93 -93z m416 -199 c5
-7 12 -39 14 -71 l3 -57 -80 0 c-50 0 -86 5 -93 12 -7 7 -12 33 -12 58 0 25 5
51 12 58 16 16 142 16 156 0z m0 -420 c7 -7 12 -30 12 -53 0 -23 -5 -46 -12
-53 -16 -16 -142 -16 -156 1 -5 6 -12 36 -13 65 l-4 52 81 0 c49 0 85 -5 92
-12z"/>
<path d="M5744 10907 c-2 -7 -3 -85 -2 -172 l3 -160 135 0 135 0 3 33 c2 17 7
32 13 32 5 0 9 -110 9 -274 l0 -275 -27 -3 -28 -3 0 -135 0 -135 225 0 225 0
0 135 0 135 -27 3 -28 3 0 275 c0 164 4 274 9 274 6 0 11 -15 13 -32 l3 -33
135 0 135 0 0 170 0 170 -463 3 c-372 2 -464 0 -468 -11z"/>
<path d="M13062 10827 l-93 -93 3 -120 3 -119 165 0 165 0 3 60 c2 32 8 65 14
72 14 17 139 18 156 1 7 -7 12 -24 12 -39 0 -22 -45 -67 -260 -264 l-261 -238
3 -136 3 -136 420 0 420 0 0 155 0 155 -148 5 -147 5 150 150 150 150 0 155 0
155 -87 87 -88 88 -245 0 -245 0 -93 -93z"/>
<path d="M13952 10827 l-92 -92 0 -370 0 -370 93 -93 92 -92 245 0 245 0 87
87 88 88 0 380 0 380 -87 87 -88 88 -245 0 -245 0 -93 -93z m416 -199 c9 -9
12 -81 12 -263 0 -182 -3 -254 -12 -263 -16 -16 -140 -16 -156 0 -9 9 -12 81
-12 263 0 182 3 254 12 263 7 7 40 12 78 12 38 0 71 -5 78 -12z"/>
<path d="M14867 10812 l-108 -108 3 -95 3 -94 68 -3 67 -3 0 -209 0 -209 -67
-3 -68 -3 0 -135 0 -135 285 0 285 0 0 135 0 135 -52 3 -53 3 -2 412 -3 412
-125 3 -125 2 -108 -108z"/>
<path d="M15497 10812 l-108 -108 3 -95 3 -94 68 -3 67 -3 0 -209 0 -209 -67
-3 -68 -3 0 -135 0 -135 285 0 285 0 0 135 0 135 -52 3 -53 3 -2 412 -3 412
-125 3 -125 2 -108 -108z"/>
<path d="M6724 10107 c-2 -7 -3 -76 -2 -152 l3 -140 150 0 150 0 0 150 0 150
-148 3 c-115 2 -149 0 -153 -11z"/>
<path d="M7627 7968 c-46 -62 -117 -176 -117 -190 0 -8 13 -21 29 -31 l30 -17
-227 -344 -227 -344 -31 19 c-17 10 -34 19 -38 19 -8 0 -146 -209 -146 -221 0
-12 410 -281 421 -277 5 2 41 50 79 108 l71 105 -31 26 c-16 14 -30 29 -30 33
0 5 131 207 146 225 2 2 64 -36 138 -85 l133 -89 -76 -117 -76 -117 -30 19
c-17 11 -34 20 -40 20 -11 0 -145 -202 -145 -218 0 -13 409 -284 421 -280 16
5 148 210 143 222 -2 6 -18 19 -34 28 l-30 17 193 293 c106 161 209 316 228
345 l35 52 30 -19 c16 -11 34 -20 39 -20 11 0 145 200 145 217 0 14 -408 285
-422 281 -15 -5 -146 -212 -141 -224 2 -6 15 -17 29 -24 13 -7 24 -17 24 -22
0 -5 -27 -52 -61 -104 -38 -59 -65 -91 -73 -87 -44 27 -243 157 -250 164 -11
10 111 199 128 199 6 0 20 -7 30 -15 11 -8 25 -15 30 -15 12 0 146 199 146
216 0 9 -337 240 -397 272 -19 11 -25 8 -46 -20z m353 -270 c0 -7 -45 -80 -66
-107 -2 -2 -19 7 -38 18 l-35 22 -100 -151 c-55 -82 -98 -156 -95 -163 3 -6
86 -65 184 -129 149 -97 182 -115 193 -104 21 22 187 282 187 294 0 6 -8 16
-17 21 -47 27 -47 26 -8 85 21 31 39 56 42 56 8 0 313 -203 313 -209 0 -3 -16
-30 -36 -59 l-35 -53 -33 20 c-31 20 -34 20 -48 3 -12 -13 -475 -710 -511
-769 -5 -7 6 -21 27 -36 l35 -23 -36 -55 c-20 -30 -37 -55 -39 -57 -4 -6 -314
200 -314 210 0 7 45 79 66 107 2 2 18 -6 37 -18 32 -20 35 -20 49 -3 29 32
208 313 208 325 0 11 -340 239 -364 244 -12 3 -226 -315 -226 -334 0 -7 8 -17
18 -22 46 -27 46 -26 6 -85 -22 -33 -43 -55 -50 -52 -13 5 -283 183 -297 196
-5 4 8 33 29 64 l37 56 31 -19 c17 -11 36 -17 42 -13 8 5 480 715 518 779 4 8
-6 21 -28 35 l-34 22 39 58 39 57 155 -101 c85 -55 155 -105 155 -110z"/>
<path d="M11994 7799 c-148 -99 -360 -242 -471 -317 -112 -74 -203 -140 -203
-146 0 -17 182 -286 193 -286 17 0 217 134 217 145 0 6 -9 23 -20 39 l-19 30
49 33 c27 18 53 33 57 33 4 -1 110 -153 235 -340 l228 -339 -30 -21 c-17 -12
-30 -26 -30 -32 0 -11 111 -180 135 -207 11 -11 49 11 224 129 l212 142 -17
27 c-91 139 -129 191 -141 191 -7 0 -25 -7 -39 -16 -14 -10 -28 -13 -33 -8
-16 17 -441 653 -446 666 -3 8 16 26 47 47 l51 33 18 -23 c10 -13 19 -27 19
-31 0 -5 5 -8 12 -8 19 0 218 134 218 147 0 10 -187 293 -194 293 -2 0 -124
-81 -272 -181z m329 -14 l55 -81 -60 -39 c-53 -34 -61 -37 -69 -22 -5 9 -17
23 -25 32 -18 18 -3 25 -147 -70 -42 -27 -77 -54 -77 -58 0 -8 502 -760 522
-782 5 -6 21 -2 43 9 19 11 36 17 38 15 2 -2 20 -27 40 -55 l37 -51 -160 -106
-159 -107 -40 58 -39 58 34 22 c32 21 33 24 22 46 -40 74 -515 766 -526 766
-14 0 -64 -32 -160 -103 l-53 -38 21 -34 21 -34 -48 -35 c-26 -20 -52 -36 -58
-36 -10 0 -125 162 -125 177 0 4 188 135 418 289 309 209 420 279 428 270 6
-6 36 -47 67 -91z"/>
<path d="M8965 7154 c-60 -41 -116 -81 -123 -88 -11 -10 -182 -888 -182 -932
0 -27 161 -254 184 -259 56 -13 560 -105 573 -105 26 0 253 162 258 184 12 49
165 878 167 899 1 13 -32 70 -81 142 -46 66 -84 121 -85 122 -2 2 -588 113
-596 113 -3 0 -54 -34 -115 -76z m652 -94 c15 0 153 -198 153 -219 1 -30 -154
-846 -162 -857 -5 -6 -52 -41 -106 -78 l-98 -67 -250 46 c-137 25 -258 49
-269 54 -11 5 -51 53 -89 108 l-68 100 81 434 c47 251 87 437 94 441 7 3 53
35 104 71 l92 64 253 -48 c139 -27 258 -48 265 -49z"/>
<path d="M9142 6960 l-56 -38 -68 -359 c-37 -197 -67 -369 -68 -383 0 -14 16
-48 35 -77 38 -57 25 -52 226 -88 l96 -18 54 40 55 41 68 363 c37 200 68 370
69 376 3 21 -67 123 -88 129 -11 2 -76 15 -143 28 l-124 24 -56 -38z m193 -56
c79 -14 93 -20 117 -47 15 -18 28 -39 28 -47 0 -8 -27 -167 -62 -352 l-62
-338 -38 -25 -37 -25 -108 21 c-105 20 -109 22 -132 57 l-24 36 63 341 c40
216 68 345 77 355 14 13 14 13 4 -5 -10 -18 -131 -653 -131 -686 0 -8 10 -26
23 -42 19 -23 37 -30 126 -47 l104 -20 31 23 c31 24 31 25 94 365 63 338 64
341 46 371 -21 35 -18 34 -143 57 -78 14 -98 14 -115 4 -19 -12 -20 -12 -7 3
17 21 33 21 146 1z"/>
<path d="M9795 4233 c-38 -2 -77 -6 -85 -10 -8 -3 -31 -5 -51 -4 -21 1 -40 -2
-44 -8 -3 -6 -17 -8 -31 -5 -13 3 -30 2 -37 -4 -6 -5 -19 -10 -27 -10 -8 0
-33 -6 -55 -12 -22 -6 -47 -13 -55 -14 -38 -7 -110 -29 -165 -51 -72 -28 -98
-38 -105 -39 -3 -1 -19 -11 -36 -23 -16 -12 -42 -25 -56 -28 -15 -4 -34 -15
-44 -26 -9 -10 -21 -19 -26 -19 -19 0 -117 -88 -149 -135 -18 -27 -39 -56 -46
-63 -13 -13 -33 -76 -33 -102 0 -9 -7 -25 -15 -37 -12 -17 -16 -51 -16 -135
-2 -230 -2 -437 1 -563 4 -130 4 -130 44 -210 39 -76 82 -121 203 -215 24 -19
200 -98 233 -105 19 -4 40 -11 45 -15 9 -7 81 -29 110 -34 6 -1 15 -4 20 -8 6
-3 35 -9 65 -13 30 -4 60 -11 65 -15 31 -23 519 -43 775 -31 94 4 218 22 325
45 39 9 83 18 98 21 33 5 97 26 112 36 6 4 26 12 45 17 76 23 124 44 166 72
23 17 47 30 52 30 18 0 125 106 160 160 42 62 44 76 63 355 9 133 9 240 1 410
-11 241 -15 263 -66 350 -30 51 -159 185 -178 185 -5 0 -22 8 -36 18 -48 33
-176 97 -222 112 -25 7 -50 17 -55 21 -14 10 -63 23 -220 55 -44 9 -96 20
-115 25 -89 23 -373 33 -615 22z m530 -143 c167 -33 357 -84 434 -117 182 -78
322 -187 376 -292 82 -163 -39 -344 -320 -480 -260 -126 -648 -184 -1010 -151
-360 33 -663 148 -830 316 -79 78 -105 131 -105 213 0 171 256 373 571 451 46
11 100 25 119 30 41 12 139 29 225 40 85 11 468 4 540 -10z m-1383 -891 c97
-79 253 -152 443 -207 321 -94 831 -105 1165 -26 245 59 423 139 565 253 l50
41 8 -83 c4 -45 5 -98 2 -117 -3 -19 -10 -83 -15 -142 -10 -121 -15 -132 -79
-201 -130 -140 -395 -236 -761 -279 -123 -14 -430 -17 -545 -5 -290 31 -523
93 -672 179 -115 66 -214 163 -234 228 -6 19 -13 127 -16 240 -5 201 -5 205
13 185 11 -12 44 -41 76 -66z"/>
</g>
</svg>
